<svg xmlns="http://www.w3.org/2000/svg" width="53.982" height="35"><defs><radialGradient id="b" cx=".5" cy=".5" r=".5" gradientUnits="objectBoundingBox"><stop offset="0" stop-color="#7d94e0"/><stop offset="1" stop-color="#011865"/></radialGradient><clipPath id="a"><path data-name="Path 4117" d="M50.5 0a3.479 3.479 0 00-3.12 5.06l-9.35 8a3.49 3.49 0 00-6 2.28l-12.17 1.24a3.49 3.49 0 10-6.31 2.79l-8.41 9.06A3.37 3.37 0 003.5 28 3.5 3.5 0 107 31.5a3.44 3.44 0 00-.72-2.1l8.33-9a3.48 3.48 0 005.33-2.36l12.33-1.23A3.5 3.5 0 0039 15.5a3.41 3.41 0 00-.2-1.11l9.53-8.16A3.49 3.49 0 1050.5 0z" transform="translate(1294 5654)" fill="#fff"/></clipPath></defs><g data-name="Mask Group 27" transform="translate(-1294 -5654)" clip-path="url(#a)"><g data-name="Rectangle 201" transform="translate(1290 5639)" stroke="#707070" fill="url(#b)"><path stroke="none" d="M0 0h62v64H0z"/>
  <path fill="none" d="M.5.5h61v63H.5z"/></g></g>
</svg>