<?xml version="1.0" encoding="utf-8"?>
<!-- Generator: Adobe Illustrator 24.2.1, SVG Export Plug-In . SVG Version: 6.00 Build 0)  -->
<svg version="1.1" id="Layer_1" xmlns="http://www.w3.org/2000/svg" xmlns:xlink="http://www.w3.org/1999/xlink" x="0px" y="0px"
	 viewBox="0 0 252.1 119.1" style="enable-background:new 0 0 252.1 119.1;" xml:space="preserve">
<style type="text/css">
	.st0{clip-path:url(#SVGID_2_);}
	.st1{fill:#0891C4;}
	.st2{fill:none;stroke:#FFFFFF;stroke-width:3.0003;stroke-linecap:round;stroke-miterlimit:4.0005;}
	.st3{clip-path:url(#SVGID_4_);}
</style>
<g>
	<defs>
		<path id="SVGID_1_" d="M56.5,17.8C74,6.3,83.2-1.6,116.7,0.3s18.7,8.4,57.5,15.7s55.3,0.5,78.2,17.4s26.9,36.6,7.3,48.8
			s-10.7,33.8-59,28.3s-53.1,9-100.3,8.6c-47.2-0.4-48.2-13.7-57.9-26.4S17,66.5,20.9,49.2S39.1,29.4,56.5,17.8z"/>
	</defs>
	<clipPath id="SVGID_2_">
		<use xlink:href="#SVGID_1_"  style="overflow:visible;"/>
	</clipPath>
	<g id="button" transform="translate(-23.192)" class="st0">
		<path id="bg-2" class="st1" d="M57,23.9h184c9.9,0,18,8.1,18,18v30c0,9.9-8.1,18-18,18l0,0H57c-9.9,0-18-8.1-18-18l0,0v-30
			C39,32,47.1,23.9,57,23.9z"/>
		<g id="_1" transform="matrix(0.809, -0.588, 0.588, 0.809, 216.472, 82.951)">
			<path id="Path_3" class="st2" d="M-1.3,31.6C-1,27.9,0,31,0.6,31.1s1.3-2.4,1.3-2.4"/>
		</g>
		<g id="_2" transform="matrix(0.809, -0.588, 0.588, 0.809, 39.999, 32.747)">
			<path id="Path_3-2" class="st2" d="M-33.6,5.2c0.6,0.4,2.5,0.1,3.7,0.1c0.9,0,1.7,0.1,2.5,0.3"/>
		</g>
	</g>
</g>
<g>
	<defs>
		<path id="SVGID_3_" d="M36.3,17.8C53.7,6.3,62.9-1.6,96.4,0.3S115.1,8.7,154,16s55.3,0.5,78.2,17.4s26.9,36.6,7.3,48.8
			s-10.7,33.8-59,28.3s-53.1,9-100.3,8.6S32,105.4,22.3,92.7S-3.3,66.5,0.6,49.2S18.8,29.4,36.3,17.8z"/>
	</defs>
	<clipPath id="SVGID_4_">
		<use xlink:href="#SVGID_3_"  style="overflow:visible;"/>
	</clipPath>
	<g id="button-hover" transform="translate(-43.472 0)" class="st3">
		<path id="bg-2_1_" class="st1" d="M79.7,17.8C97.2,6.3,106.3-1.6,139.9,0.3s18.7,8.4,57.5,15.7s55.3,0.5,78.2,17.4
			s26.9,36.6,7.3,48.8s-10.7,33.8-59,28.3s-53.1,9-100.3,8.6s-48.2-13.7-57.9-26.4S40.2,66.5,44.1,49.2S62.3,29.4,79.7,17.8z"/>
		<g id="_1_1_" transform="matrix(0.809, -0.588, 0.588, 0.809, 184.999, 107.703)">
			<path id="Path_3_1_" class="st2" d="M0,17.4c12.3-22,52.8-3.6,75.9-2.8S128.7,0,128.7,0"/>
		</g>
		<g id="_2_1_" transform="matrix(0.809, -0.588, 0.588, 0.809, -0.001, 77.703)">
			<path id="Path_3-2_1_" class="st2" d="M0,17.4c12.3-22,52.8-3.6,75.9-2.8S128.7,0,128.7,0"/>
		</g>
	</g>
</g>
</svg>
