
<svg xmlns="http://www.w3.org/2000/svg" width="157.549" height="147.491" viewBox="0 0 157.549 147.491">
  <defs>
    <style>
      @import url('https://fonts.googleapis.com/css2?family=Raleway:wght@500');
    </style>
  </defs>

  <g id="curve-hover" transform="translate(17.548 14)" fill="#011865">
    <path d="M 70.00000762939453 138.5 C 62.13617706298828 138.5 53.65724182128906 137.3945465087891 44.79874420166016 135.2143707275391 C 36.46085357666016 133.1623077392578 28.02489471435547 130.1762390136719 20.40280914306641 126.578987121582 C 12.8053731918335 122.9933319091797 6.063808441162109 118.823356628418 0.9068952202796936 114.5198516845703 C -1.730648279190063 112.3187866210938 -3.961256980895996 110.0810317993164 -5.722952842712402 107.8687438964844 C -7.514583110809326 105.6188735961914 -8.827322006225586 103.3871383666992 -9.624756813049316 101.2355499267578 C -13.17886543273926 91.64585113525391 -16.41297340393066 81.34270477294922 -16.01551818847656 70.97537994384766 C -15.91245269775391 68.28716278076172 -15.56073474884033 65.66389465332031 -14.97010517120361 63.17846298217773 C -14.33782196044922 60.51763916015625 -13.40980052947998 57.92168045043945 -12.21182250976562 55.46268081665039 C -10.93593120574951 52.84372329711914 -9.311713218688965 50.29324722290039 -7.384278774261475 47.88209533691406 C -5.339409351348877 45.32400512695312 -2.889256954193115 42.84235382080078 -0.1018656566739082 40.50602722167969 C 9.547938346862793 32.41781234741211 15.74480819702148 24.53785514831543 21.21220016479492 17.58552932739258 C 29.15752601623535 7.482245922088623 35.43321990966797 -0.497949630022049 48.61435317993164 -4.410645484924316 C 52.19785308837891 -5.474362850189209 55.58317947387695 -5.99144983291626 58.96380996704102 -5.99144983291626 C 63.98815536499023 -5.99144983291626 68.84026336669922 -4.853080272674561 74.23368072509766 -2.408906221389771 C 79.10850524902344 -0.1997757256031036 83.79237365722656 2.785637378692627 88.75124359130859 5.946332931518555 C 93.26081085205078 8.820658683776855 97.92391967773438 11.79285430908203 103.0515670776367 14.37665939331055 C 107.9441528320312 16.84202766418457 112.5653915405273 19.17065811157227 116.8264846801758 21.9163990020752 C 121.5471115112305 24.95822334289551 125.10595703125 28.05376815795898 128.0264434814453 31.65824508666992 C 131.4340515136719 35.86398696899414 133.9248809814453 40.75057220458984 135.6412506103516 46.59724426269531 C 137.5648956298828 53.15002822875977 138.5 60.80513763427734 138.5 70.00000762939453 C 138.5 79.24811553955078 136.6890869140625 88.21876525878906 133.1175537109375 96.66283416748047 C 131.4009094238281 100.7214202880859 129.2761077880859 104.6360321044922 126.8021774291992 108.297966003418 C 124.3514633178711 111.9254608154297 121.5369567871094 115.3366775512695 118.4368286132812 118.4368133544922 C 115.3366775512695 121.5369644165039 111.9254837036133 124.3514633178711 108.2979583740234 126.8021621704102 C 104.6360473632812 129.276123046875 100.7214202880859 131.4009246826172 96.66282653808594 133.1175537109375 C 88.21878814697266 136.6890869140625 79.24811553955078 138.5 70.00000762939453 138.5 Z" stroke="none"/>
    <path d="M 58.96379852294922 -4.491470336914062 C 55.72984313964844 -4.491470336914062 52.48413848876953 -3.994674682617188 49.04120635986328 -2.972640991210938 C 43.21786499023438 -1.244064331054688 38.43716430664062 1.397666931152344 33.99604797363281 5.340988159179688 C 29.86554718017578 9.008491516113281 26.40187072753906 13.41289520263672 22.39127349853516 18.51276397705078 C 16.87879943847656 25.52244567871094 10.63079833984375 33.46739959716797 0.8616867065429688 41.65562438964844 C -9.046882629394531 49.96071624755859 -14.0771484375 59.57007598876953 -14.51661682128906 71.03282928466797 C -14.90399169921875 81.13775634765625 -11.71842956542969 91.27008056640625 -8.218223571777344 100.7142639160156 C -6.730972290039062 104.7271881103516 -3.243202209472656 109.1028518676758 1.86798095703125 113.3681945800781 C 6.928504943847656 117.5912399291992 13.55914306640625 121.6903762817383 21.04305267333984 125.2224426269531 C 28.57623291015625 128.7777557373047 36.91477966308594 131.7292633056641 45.15721130371094 133.7578277587891 C 53.89852523803711 135.9091644287109 62.25684356689453 136.9999847412109 70 136.9999847412109 C 79.04627990722656 136.9999847412109 87.82034301757812 135.2289428710938 96.07850646972656 131.7360382080078 C 100.0478897094727 130.05712890625 103.876594543457 127.9789428710938 107.458251953125 125.559211730957 C 111.0066604614258 123.1619644165039 114.3435287475586 120.4087829589844 117.3761596679688 117.3761444091797 C 120.4087982177734 114.3435134887695 123.161979675293 111.0066452026367 125.5592346191406 107.4582366943359 C 127.9789581298828 103.876579284668 130.0571441650391 100.0478744506836 131.7360534667969 96.07850646972656 C 135.2289581298828 87.82035064697266 137 79.0462646484375 137 70.00001525878906 C 137 60.95024108886719 136.0847473144531 53.43332672119141 134.2019805908203 47.01976013183594 C 132.5425720214844 41.36710357666016 130.1412963867188 36.65119171142578 126.8609619140625 32.60255432128906 C 124.0436172485352 29.12532806396484 120.5969390869141 26.13039398193359 116.0140075683594 23.17728424072266 C 111.8195724487305 20.4744873046875 107.2327270507812 18.16319274902344 102.376594543457 15.71619415283203 C 97.18143463134766 13.09837341308594 92.48591613769531 10.10552978515625 87.94500732421875 7.211235046386719 C 83.03239440917969 4.080009460449219 78.3922119140625 1.122467041015625 73.61452484130859 -1.04266357421875 C 68.42245483398438 -3.395584106445312 63.76709365844727 -4.491470336914062 58.96379852294922 -4.491470336914062 M 58.96380615234375 -7.491455078125 C 75.65219116210938 -7.491455078125 87.46501159667969 4.842941284179688 103.7265701293945 13.03710174560547 C 123.2695236206055 22.88475799560547 140 31.34008026123047 140 70.00001525878906 C 140 108.6599197387695 108.6599349975586 139.9999847412109 70 139.9999847412109 C 37.10068511962891 139.9999847412109 -4.056632995605469 120.5756683349609 -11.03124237060547 101.7568283081055 C -18.005859375 82.93798828125 -24.6669921875 59.138671875 -1.0654296875 39.3564453125 C 22.53614044189453 19.57421875 25.3115234375 0.94189453125 48.18750762939453 -5.8486328125 C 52.02855682373047 -6.988815307617188 55.59626007080078 -7.491455078125 58.96380615234375 -7.491455078125 Z" stroke="none" fill="#fff"/>
    <text transform="translate(24.485 84.242)" font-size="24px" font-family="Raleway" fill="#fff"><tspan x="0" y="-15">Contact</tspan></text>
  </g>
</svg>
