<svg id="Contact" xmlns="http://www.w3.org/2000/svg" width="160.485" height="148.242" viewBox="0 0 160.485 148.242">
  <g id="Background" transform="translate(20.485 8.242)" fill="#011865">
    <path d="M 70.00000762939453 138.5 C 51.24409484863281 138.5 37.77548599243164 136.8297271728516 26.32907295227051 133.084228515625 C 19.69335556030273 130.9128723144531 13.8372688293457 128.0692443847656 8.426116943359375 124.3908081054688 C 2.685486316680908 120.488395690918 -2.396774530410767 115.7578353881836 -7.111035346984863 109.9288101196289 C -11.62655735015869 104.3455505371094 -14.90762233734131 97.97605133056641 -16.86307907104492 90.99726867675781 C -18.63090515136719 84.68814086914062 -19.29955673217773 77.97841644287109 -18.85044860839844 71.05448150634766 C -18.44533920288086 64.80894470214844 -17.09457969665527 58.41413879394531 -14.94418811798096 52.56144332885742 C -12.91642665863037 47.04246520996094 -10.20347023010254 42.04029083251953 -7.098665714263916 38.095703125 C -0.976622462272644 30.31783294677734 9.435290336608887 27.19100761413574 20.45855140686035 23.88059425354004 C 31.41835594177246 20.58922386169434 42.75128936767578 17.18578910827637 51.00446319580078 8.895180702209473 C 61.47920227050781 -1.627101898193359 72.06489562988281 -6.742101669311523 83.36646270751953 -6.742101669311523 C 86.96589660644531 -6.742101669311523 90.70498657226562 -6.210210800170898 94.47981262207031 -5.161253929138184 C 98.37331390380859 -4.079297542572021 102.4325485229492 -2.412123680114746 106.544792175293 -0.206014946103096 C 112.230354309082 2.844115495681763 116.9300079345703 6.318854808807373 120.9122924804688 10.41674613952637 C 124.9853744506836 14.60809421539307 128.2245330810547 19.36370277404785 130.8148193359375 24.95535469055176 C 133.4411773681641 30.62485504150391 135.3369903564453 37.01337814331055 136.610595703125 44.48598480224609 C 137.8819885253906 51.94550704956055 138.5000152587891 60.29122543334961 138.5000152587891 70.00000762939453 C 138.5000152587891 79.24809265136719 136.6891021728516 88.21876525878906 133.1175537109375 96.66283416748047 C 131.4009246826172 100.7214202880859 129.276123046875 104.6360321044922 126.8021621704102 108.297966003418 C 124.3514633178711 111.9254608154297 121.5369644165039 115.3366775512695 118.4368133544922 118.4368133544922 C 115.3366851806641 121.5369644165039 111.9254608154297 124.3514633178711 108.297966003418 126.8021621704102 C 104.6360321044922 129.276123046875 100.7214202880859 131.4009246826172 96.66283416748047 133.1175537109375 C 88.21876525878906 136.6890869140625 79.24809265136719 138.5 70.00000762939453 138.5 Z" stroke="none"/>
    <path d="M 83.36644744873047 -5.242095947265625 C 72.48432922363281 -5.242095947265625 62.24637603759766 -0.2715988159179688 52.0675163269043 9.953399658203125 C 48.21989822387695 13.81849670410156 43.36734771728516 17.00128173828125 37.23261260986328 19.68366241455078 C 31.93341827392578 22.00070953369141 26.31928253173828 23.68671417236328 20.88996887207031 25.31721496582031 C 10.10020446777344 28.5574951171875 -0.09114837646484375 31.61811828613281 -5.91998291015625 39.02347564697266 C -8.928482055664062 42.84568786621094 -11.56214904785156 47.70594787597656 -13.53622436523438 53.07875823974609 C -15.63762664794922 58.79821014404297 -16.95765686035156 65.04768371582031 -17.35357666015625 71.15156555175781 C -17.79170227050781 77.90606689453125 -17.14071655273438 84.44694519042969 -15.41869354248047 90.59254455566406 C -13.51862335205078 97.37361907958984 -10.33112335205078 103.5619277954102 -5.944717407226562 108.9855499267578 C -1.3243408203125 114.6985015869141 3.652229309082031 119.3318328857422 9.269401550292969 123.1503067016602 C 14.56256866455078 126.7485198974609 20.29542541503906 129.5316162109375 26.79556274414062 131.6585998535156 C 38.08475494384766 135.3526458740234 51.40949249267578 137 69.99999237060547 137 C 79.04625701904297 137 87.82032775878906 135.2289428710938 96.0784912109375 131.7360534667969 C 100.0478744506836 130.0571441650391 103.8765640258789 127.9789505004883 107.4582290649414 125.5592346191406 C 111.0066375732422 123.1619720458984 114.3435211181641 120.4087829589844 117.3761367797852 117.3761444091797 C 120.4087829589844 114.3435211181641 123.1619720458984 111.0066375732422 125.5592346191406 107.4582366943359 C 127.9789428710938 103.8765716552734 130.05712890625 100.0478820800781 131.7360382080078 96.07849884033203 C 135.2289428710938 87.82032775878906 137 79.0462646484375 137 70 C 137 60.37661743164062 136.3889465332031 52.11333465576172 135.1318969726562 44.73799896240234 C 133.8808898925781 37.39799499511719 132.0235595703125 31.13328552246094 129.4537506103516 25.58585357666016 C 126.9357070922852 20.15011596679688 123.7898712158203 15.53021240234375 119.8365631103516 11.46212005615234 C 115.9632110595703 7.476333618164062 111.3834915161133 4.091995239257812 105.8356857299805 1.11578369140625 C 101.8209228515625 -1.03802490234375 97.8651123046875 -2.663665771484375 94.07820892333984 -3.71600341796875 C 90.43413543701172 -4.7286376953125 86.83018493652344 -5.242095947265625 83.36644744873047 -5.242095947265625 M 83.366455078125 -8.242095947265625 C 90.78037261962891 -8.242095947265625 98.69663238525391 -6.118560791015625 107.2538986206055 -1.52783203125 C 130.051025390625 10.70214080810547 140 31.34007263183594 140 70 C 140 108.6599273681641 108.6599197387695 140 69.99999237060547 140 C 37.10068511962891 140 11.2919921875 135.06884765625 -8.277336120605469 110.8720703125 C -27.8466796875 86.67528533935547 -20.89453125 53.19776153564453 -8.277336120605469 37.16797637939453 C 4.339851379394531 21.13819122314453 33.69628143310547 24.15576171875 49.94139862060547 7.836906433105469 C 60.08864974975586 -2.35638427734375 71.02922058105469 -8.242095947265625 83.366455078125 -8.242095947265625 Z" stroke="none" fill="#fff"/>
  </g>
  <text id="Title" transform="translate(24.485 84.242)" fill="#fff" font-size="20" font-family="Raleway-Bold, Raleway" font-weight="700" letter-spacing="0.04em"><tspan x="0" y="0">CONTACT</tspan></text>
</svg>
