<svg xmlns="http://www.w3.org/2000/svg" width="279.138" height="279.096" viewBox="0 0 279.138 279.096"><defs><style>.a{fill:#0891c4;}</style></defs><g transform="translate(0 0)"><path class="a" d="M21.28.9C23.34.645,25.4.364,27.475,0a37.466,37.466,0,0,0-6.2.9Z" transform="translate(8.547 0)"/><path class="a" d="M107.494,0h-2.621C75.7,18,50.489,19.5,23.942,21.025c-7.008.42-14.157.841-21.445,1.556-.21.491-.42.981-.617,1.472,7.541-.757,14.871-1.205,22.146-1.64C51.33,20.857,77.233,19.3,107.494,0Z" transform="translate(0.755 0)"/><path class="a" d="M135.427,14.507A165,165,0,0,0,152.948,0h-2.06a165.574,165.574,0,0,1-16.329,13.372c-33.177,23.94-60.9,25.58-90.238,27.276-14.2.841-28.636,1.7-44.32,4.934v1.4c15.712-3.182,30.191-4.037,44.4-4.934C73.951,40.339,101.858,38.685,135.427,14.507Z" transform="translate(0 0)"/><path class="a" d="M155.05,34.13A166.165,166.165,0,0,0,190.176,0H188.4a165.184,165.184,0,0,1-34.214,32.995C121,56.935,93.28,58.575,63.943,60.271,44.026,61.5,23.632,62.724,0,70.475v1.4c23.674-7.821,44.1-9.041,64.027-10.232C93.574,59.962,121.481,58.309,155.05,34.13Z" transform="translate(0 0)"/><path class="a" d="M174.673,53.753C196.749,37.844,211.481,19.357,223.016,0h-1.64c-11.4,18.964-25.916,37.06-47.516,52.618C140.627,76.558,112.9,78.2,83.566,79.894,58.351,81.45,32.35,82.992,0,97.793v1.542C32.392,84.393,58.407,82.837,83.65,81.3,113.2,79.586,141.1,77.932,174.673,53.753Z" transform="translate(0 0)"/><path class="a" d="M103.273,100.549C132.82,98.8,160.741,97.143,194.3,72.965c28.8-20.758,45.119-45.9,58.126-71.652l-1.4-.392c-12.909,25.51-29.112,50.459-57.566,70.909-33.205,23.982-60.93,25.622-90.266,27.318-28.033,1.654-57,3.378-94.611,23.3C5.691,124.027,2.8,125.653,0,127.321v1.626c3.042-1.766,6.111-3.56,9.237-5.214C46.563,103.969,75.395,102.259,103.273,100.549Z" transform="translate(0 0.37)"/><path class="a" d="M122.9,115.722c29.547-1.752,57.468-3.406,91.023-27.584,29.967-21.473,46.395-47.866,59.654-74.736-.28-.477-.575-.925-.883-1.4-13.246,27-29.617,53.459-59.64,75.044-33.177,23.94-60.9,25.58-90.238,27.276-28.033,1.654-57,3.378-94.611,23.3A224.182,224.182,0,0,0,0,155.473v1.752a223.55,223.55,0,0,1,28.86-18.32C66.186,119.142,95.018,117.432,122.9,115.722Z" transform="translate(0 4.82)"/><path class="a" d="M142.52,122.753c29.547-1.752,57.468-3.406,91.023-27.584A170.721,170.721,0,0,0,279.1,45.985V43.35a170.455,170.455,0,0,1-46.423,50.726c-33.177,23.94-60.9,25.58-90.238,27.276-28.033,1.654-57.005,3.378-94.611,23.3A228.467,228.467,0,0,0,0,178.707v1.934a227.136,227.136,0,0,1,48.483-34.7C85.809,126.173,114.641,124.463,142.52,122.753Z" transform="translate(0 17.411)"/><path class="a" d="M68.106,152.305c37.326-19.763,66.158-21.473,94.037-23.127,29.547-1.766,57.468-3.42,91.023-27.6A165.733,165.733,0,0,0,279.1,78.452v-2.1a163.712,163.712,0,0,1-26.8,24.094c-33.233,23.94-60.958,25.58-90.294,27.332-28.033,1.654-57,3.378-94.611,23.3A235.981,235.981,0,0,0,0,205.273v2.159a235.252,235.252,0,0,1,68.106-55.127Z" transform="translate(0 30.666)"/><path class="a" d="M84.805,160.959c37.326-19.763,66.158-21.473,94.037-23.141,29.547-1.752,57.468-3.406,91.023-27.584q3.252-2.355,6.307-4.78V103.66q-3.42,2.8-7.12,5.438c-33.233,23.94-60.958,25.58-90.294,27.332-28.033,1.654-57,3.378-94.611,23.3Q40.52,182.853,7.28,225.351c.322.35.645.687.981,1.023C30.281,198.2,55.847,176.307,84.805,160.959Z" transform="translate(2.924 41.635)"/><path class="a" d="M97.054,171.071c37.326-19.763,66.158-21.473,94.037-23.141,25.552-1.514,49.885-2.971,77.707-18.978V127.34c-27.851,16.231-52.2,17.675-77.791,19.2-28.033,1.654-57,3.378-94.611,23.3Q56.743,190.863,25.64,227.894h1.808Q58.06,191.816,97.054,171.071Z" transform="translate(10.298 51.146)"/><path class="a" d="M199.881,159.213c19.385-1.149,38.055-2.257,58.084-9.7V148c-20.058,7.555-38.756,8.662-58.168,9.812-28.033,1.654-57,3.378-94.611,23.3A230.01,230.01,0,0,0,52.61,219.6h1.948A228.624,228.624,0,0,1,105.8,182.34C143.17,162.633,172,160.923,199.881,159.213Z" transform="translate(21.131 59.444)"/><path class="a" d="M112.6,193.524A225.163,225.163,0,0,0,83,212.39h2.355A224.264,224.264,0,0,1,113.3,194.758c37.326-19.763,66.158-21.473,94.036-23.141,12.937-.757,25.552-1.514,38.461-4.135v-1.4c-12.937,2.663-25.58,3.42-38.545,4.2C179.181,171.883,150.279,173.607,112.6,193.524Z" transform="translate(33.337 66.706)"/><path class="a" d="M119.16,205.88h3.056c35.476-17.885,63.27-19.539,90.182-21.151,5.172-.294,10.288-.617,15.418-1.037.224-.477.435-.967.631-1.4-5.34.463-10.695.785-16.1,1.107C184.645,184.981,156.051,186.691,119.16,205.88Z" transform="translate(47.86 73.216)"/><path class="a" d="M21.28.9C23.34.645,25.4.364,27.475,0a37.466,37.466,0,0,0-6.2.9Z" transform="translate(8.547 0)"/><path class="a" d="M107.494,0h-2.621C75.7,18,50.489,19.5,23.942,21.025c-7.008.42-14.157.841-21.445,1.556-.21.491-.42.981-.617,1.472,7.541-.757,14.871-1.205,22.146-1.64C51.33,20.857,77.233,19.3,107.494,0Z" transform="translate(0.755 0)"/><path class="a" d="M135.427,14.507A165,165,0,0,0,152.948,0h-2.06a165.574,165.574,0,0,1-16.329,13.372c-33.177,23.94-60.9,25.58-90.238,27.276-14.2.841-28.636,1.7-44.32,4.934v1.4c15.712-3.182,30.191-4.037,44.4-4.934C73.951,40.339,101.858,38.685,135.427,14.507Z" transform="translate(0 0)"/><path class="a" d="M155.05,34.13A166.165,166.165,0,0,0,190.176,0H188.4a165.184,165.184,0,0,1-34.214,32.995C121,56.935,93.28,58.575,63.943,60.271,44.026,61.5,23.632,62.724,0,70.475v1.4c23.674-7.821,44.1-9.041,64.027-10.232C93.574,59.962,121.481,58.309,155.05,34.13Z" transform="translate(0 0)"/><path class="a" d="M174.673,53.753C196.749,37.844,211.481,19.357,223.016,0h-1.64c-11.4,18.964-25.916,37.06-47.516,52.618C140.627,76.558,112.9,78.2,83.566,79.894,58.351,81.45,32.35,82.992,0,97.793v1.542C32.392,84.393,58.407,82.837,83.65,81.3,113.2,79.586,141.1,77.932,174.673,53.753Z" transform="translate(0 0)"/><path class="a" d="M103.273,100.549C132.82,98.8,160.741,97.143,194.3,72.965c28.8-20.758,45.119-45.9,58.126-71.652l-1.4-.392c-12.909,25.51-29.112,50.459-57.566,70.909-33.205,23.982-60.93,25.622-90.266,27.318-28.033,1.654-57,3.378-94.611,23.3C5.691,124.027,2.8,125.653,0,127.321v1.626c3.042-1.766,6.111-3.56,9.237-5.214C46.563,103.969,75.395,102.259,103.273,100.549Z" transform="translate(0 0.37)"/><path class="a" d="M122.9,115.722c29.547-1.752,57.468-3.406,91.023-27.584,29.967-21.473,46.395-47.866,59.654-74.736-.28-.477-.575-.925-.883-1.4-13.246,27-29.617,53.459-59.64,75.044-33.177,23.94-60.9,25.58-90.238,27.276-28.033,1.654-57,3.378-94.611,23.3A224.182,224.182,0,0,0,0,155.473v1.752a223.55,223.55,0,0,1,28.86-18.32C66.186,119.142,95.018,117.432,122.9,115.722Z" transform="translate(0 4.82)"/><path class="a" d="M142.52,122.753c29.547-1.752,57.468-3.406,91.023-27.584A170.721,170.721,0,0,0,279.1,45.985V43.35a170.455,170.455,0,0,1-46.423,50.726c-33.177,23.94-60.9,25.58-90.238,27.276-28.033,1.654-57.005,3.378-94.611,23.3A228.467,228.467,0,0,0,0,178.707v1.934a227.136,227.136,0,0,1,48.483-34.7C85.809,126.173,114.641,124.463,142.52,122.753Z" transform="translate(0 17.411)"/><path class="a" d="M68.106,152.305c37.326-19.763,66.158-21.473,94.037-23.127,29.547-1.766,57.468-3.42,91.023-27.6A165.733,165.733,0,0,0,279.1,78.452v-2.1a163.712,163.712,0,0,1-26.8,24.094c-33.233,23.94-60.958,25.58-90.294,27.332-28.033,1.654-57,3.378-94.611,23.3A235.981,235.981,0,0,0,0,205.273v2.159a235.252,235.252,0,0,1,68.106-55.127Z" transform="translate(0 30.666)"/><path class="a" d="M84.805,160.959c37.326-19.763,66.158-21.473,94.037-23.141,29.547-1.752,57.468-3.406,91.023-27.584q3.252-2.355,6.307-4.78V103.66q-3.42,2.8-7.12,5.438c-33.233,23.94-60.958,25.58-90.294,27.332-28.033,1.654-57,3.378-94.611,23.3Q40.52,182.853,7.28,225.351c.322.35.645.687.981,1.023C30.281,198.2,55.847,176.307,84.805,160.959Z" transform="translate(2.924 41.635)"/><path class="a" d="M97.054,171.071c37.326-19.763,66.158-21.473,94.037-23.141,25.552-1.514,49.885-2.971,77.707-18.978V127.34c-27.851,16.231-52.2,17.675-77.791,19.2-28.033,1.654-57,3.378-94.611,23.3Q56.743,190.863,25.64,227.894h1.808Q58.06,191.816,97.054,171.071Z" transform="translate(10.298 51.146)"/><path class="a" d="M199.881,159.213c19.385-1.149,38.055-2.257,58.084-9.7V148c-20.058,7.555-38.756,8.662-58.168,9.812-28.033,1.654-57,3.378-94.611,23.3A230.01,230.01,0,0,0,52.61,219.6h1.948A228.624,228.624,0,0,1,105.8,182.34C143.17,162.633,172,160.923,199.881,159.213Z" transform="translate(21.131 59.444)"/><path class="a" d="M112.6,193.524A225.163,225.163,0,0,0,83,212.39h2.355A224.264,224.264,0,0,1,113.3,194.758c37.326-19.763,66.158-21.473,94.036-23.141,12.937-.757,25.552-1.514,38.461-4.135v-1.4c-12.937,2.663-25.58,3.42-38.545,4.2C179.181,171.883,150.279,173.607,112.6,193.524Z" transform="translate(33.337 66.706)"/><path class="a" d="M119.16,205.88h3.056c35.476-17.885,63.27-19.539,90.182-21.151,5.172-.294,10.288-.617,15.418-1.037.224-.477.435-.967.631-1.4-5.34.463-10.695.785-16.1,1.107C184.645,184.981,156.051,186.691,119.16,205.88Z" transform="translate(47.86 73.216)"/></g></svg>