<svg xmlns="http://www.w3.org/2000/svg" width="375.96" height="768.963" viewBox="0 0 375.96 768.963">
  <g id="Footer" transform="translate(-646.127 -5751.913)">
    <g id="Background" transform="translate(1020.587 5795.413) rotate(90)">
      <g id="Layer_1" data-name="Layer 1" transform="translate(-42)">
        <path id="Path_464" data-name="Path 464" d="M218.49,39.47c21.35,25.82,5.3,48.64,22.22,70s42,12.64,58.12,40.5,5.7,39.84,21.32,70.14,48.25,14.93,70.66,52.47,74.62,3.78,111.18,30c35.67,25.62,55.08,68.31,56,70.38H10A10,10,0,0,1,0,363V10A10,10,0,0,1,10,0H146.51S197.15,13.66,218.49,39.47Z" transform="translate(0 0)" fill="#fff" stroke="#011865" stroke-width="3"/>
        <path id="Path_467" data-name="Path 467" d="M600.973,373.144,406.12,372.97c-.918-2.07-26.726-56.571-61.919-82.191-36.081-26.26-87.607,7.5-109.724-30S186.85,250.42,171.4,220.12s-5.092-42.31-21.051-70.15-40.651-19.14-57.359-40.5-.859-44.18-21.929-70S0,.01,0,0H591.1a9.935,9.935,0,0,1,9.869,10Z" transform="translate(166.49 0.403)" fill="#011865"/>
      </g>
    </g>
    <g id="Fingerprint" transform="translate(776.696 5820.926)">
      <path id="Path_399" data-name="Path 399" d="M85.781,10.569A43.73,43.73,0,0,0,95.471.985l-.5.051a43.3,43.3,0,0,1-9.4,9.235c-8.584,6.185-15.765,6.7-23.346,7.144l-.367.393h.062C69.663,17.341,76.983,16.908,85.781,10.569Z" transform="translate(-43.847 -0.713)" fill="#011865"/>
      <path id="Path_400" data-name="Path 400" d="M78.04,15.051A45.841,45.841,0,0,0,91.247.05h-.419a45.4,45.4,0,0,1-13,14.718c-8.713,6.277-15.978,6.71-23.673,7.166A87.585,87.585,0,0,0,44,22.948l-.323.43a84.328,84.328,0,0,1,10.5-1.077C61.922,21.824,69.242,21.39,78.04,15.051Z" transform="translate(-30.961 -0.05)" fill="#011865"/>
      <path id="Path_401" data-name="Path 401" d="M70.245,22.021C78,16.436,82.306,9.63,85.76,2.688l-.367-.062c-3.425,6.865-7.7,13.6-15.346,19.109-8.713,6.277-15.978,6.71-23.673,7.166-6.284.367-12.759.761-20.667,4.131l-.283.522c8.033-3.528,14.593-3.921,20.958-4.3C54.127,28.794,61.448,28.361,70.245,22.021Z" transform="translate(-18.022 -1.876)" fill="#011865"/>
      <path id="Path_402" data-name="Path 402" d="M40.224,38.268c7.747-.463,15.067-.9,23.864-7.236C73.154,24.5,77.5,16.311,81.287,8.185l-.367-.107c-3.763,8.085-8.085,16.2-17.055,22.655-8.713,6.277-15.978,6.71-23.673,7.166-7.35.437-14.946.886-24.8,6.108a58.126,58.126,0,0,0-5.711,3.458l-.2.588a58.37,58.37,0,0,1,6.078-3.723C25.355,39.168,32.915,38.7,40.224,38.268Z" transform="translate(-6.72 -5.742)" fill="#011865"/>
      <path id="Path_403" data-name="Path 403" d="M38.962,49.113c7.747-.463,15.067-.9,23.864-7.236,10.032-7.225,14.291-16.485,18.4-25.445l.073-.165-.334-.147-.074.158c-4.094,8.915-8.327,18.132-18.279,25.3-8.713,6.277-15.978,6.71-23.673,7.166-7.35.437-14.946.886-24.8,6.108A60.312,60.312,0,0,0,.515,64.775c-.026.195-.051.39-.073.588A60.021,60.021,0,0,1,14.307,55.169C24.093,50.013,31.652,49.546,38.962,49.113Z" transform="translate(-0.313 -11.442)" fill="#011865"/>
      <path id="Path_404" data-name="Path 404" d="M19.139,67.784c9.786-5.182,17.345-5.63,24.655-6.063,7.747-.463,15.067-.9,23.864-7.236C77.69,47.26,81.949,38,86.058,29.04q.5-1.1,1.011-2.2l-.32-.187q-.514,1.1-1.025,2.227c-4.094,8.915-8.327,18.132-18.279,25.3-8.713,6.277-15.978,6.71-23.673,7.166-7.35.437-14.946.886-24.8,6.108A62.293,62.293,0,0,0,0,83.2c.018.173.033.342.051.514A62.308,62.308,0,0,1,19.139,67.784Z" transform="translate(0 -18.905)" fill="#011865"/>
      <path id="Path_405" data-name="Path 405" d="M28.758,82.28C38.544,77.1,46.1,76.65,53.412,76.216c7.747-.463,15.067-.9,23.864-7.236,10.032-7.225,14.291-16.485,18.4-25.445q.8-1.746,1.606-3.469l-.3-.228q-.832,1.753-1.643,3.543c-4.094,8.915-8.327,18.132-18.279,25.3-8.713,6.277-15.978,6.71-23.673,7.166-7.35.437-14.946.886-24.8,6.108A64.527,64.527,0,0,0,6.312,101.977c.048.151.092.3.136.445A64.3,64.3,0,0,1,28.758,82.28Z" transform="translate(-4.474 -28.256)" fill="#011865"/>
      <path id="Path_406" data-name="Path 406" d="M41.562,98.664c9.786-5.182,17.345-5.63,24.655-6.063,7.747-.463,15.067-.9,23.864-7.236,10.032-7.225,14.291-16.485,18.4-25.445.61-1.334,1.216-2.653,1.837-3.954l-.276-.272c-.643,1.341-1.268,2.7-1.9,4.072-4.094,8.915-8.327,18.132-18.279,25.3-8.713,6.277-15.978,6.71-23.673,7.166-7.35.437-14.946.886-24.8,6.108-9.507,5.035-17.621,12.73-24.276,22.979q.1.2.187.386C23.945,111.415,32.055,103.7,41.562,98.664Z" transform="translate(-12.134 -39.495)" fill="#011865"/>
      <path id="Path_407" data-name="Path 407" d="M56.353,117.124c9.786-5.182,17.345-5.63,24.655-6.063,7.747-.463,15.067-.9,23.864-7.236,10.032-7.225,14.291-16.485,18.4-25.445q.827-1.808,1.657-3.579l-.254-.323c-.588,1.235-1.161,2.484-1.738,3.741-4.094,8.915-8.327,18.132-18.279,25.3-8.713,6.277-15.978,6.71-23.673,7.166-7.35.437-14.946.886-24.8,6.108-10.08,5.347-18.6,13.67-25.459,24.86l.224.338C37.8,130.783,46.292,122.456,56.353,117.124Z" transform="translate(-21.78 -52.81)" fill="#011865"/>
      <path id="Path_408" data-name="Path 408" d="M72.684,138.143c9.79-5.182,17.345-5.63,24.655-6.064,7.747-.463,15.067-.9,23.864-7.236,10.032-7.225,14.291-16.485,18.4-25.445q.5-1.1,1-2.161l-.228-.367q-.551,1.191-1.1,2.392c-4.094,8.915-8.327,18.132-18.279,25.3-8.713,6.277-15.978,6.707-23.673,7.166-7.35.437-14.946.886-24.8,6.108C62.162,143.321,53.464,151.949,46.5,163.6c.085.1.165.2.25.294C53.692,152.232,62.365,143.611,72.684,138.143Z" transform="translate(-32.966 -68.684)" fill="#011865"/>
      <path id="Path_409" data-name="Path 409" d="M90.24,162.312c9.79-5.182,17.345-5.63,24.655-6.063,7.747-.463,15.067-.9,23.864-7.236,9.8-7.063,14.089-16.07,18.121-24.838-.062-.158-.129-.312-.191-.467-4.042,8.82-8.3,17.915-18.143,25.007-8.713,6.277-15.978,6.707-23.673,7.166-7.35.437-14.946.886-24.8,6.108C79.7,167.5,70.98,176.14,64.012,187.83l.276.254C71.23,176.419,79.921,167.784,90.24,162.312Z" transform="translate(-45.377 -87.709)" fill="#011865"/>
      <path id="Path_410" data-name="Path 410" d="M108.87,191.179c9.79-5.182,17.345-5.63,24.655-6.064,7.747-.463,15.067-.9,23.864-7.236,8.052-5.8,12.381-12.91,15.9-20.123l-.121-.584c-3.543,7.317-7.857,14.549-15.993,20.41-8.713,6.277-15.978,6.707-23.673,7.166-7.35.437-14.946.886-24.8,6.108-10.179,5.391-18.764,13.825-25.665,25.184l.3.213C90.205,204.941,98.745,196.544,108.87,191.179Z" transform="translate(-58.862 -111.431)" fill="#011865"/>
      <path id="Path_411" data-name="Path 411" d="M128.573,226.292c9.79-5.182,17.345-5.63,24.655-6.063,7.747-.463,15.067-.9,23.864-7.236a44.76,44.76,0,0,0,11.888-12.811v-.735a44.653,44.653,0,0,1-12.127,13.229c-8.713,6.277-15.978,6.707-23.673,7.166-7.35.437-14.946.886-24.8,6.108-9.757,5.193-18.051,13.185-24.805,23.842.107.059.217.114.323.176C110.614,239.363,118.868,231.418,128.573,226.292Z" transform="translate(-73.421 -141.399)" fill="#011865"/>
      <path id="Path_412" data-name="Path 412" d="M149.494,265.485c9.79-5.182,17.345-5.63,24.655-6.063,7.747-.463,15.067-.9,23.864-7.236a43.456,43.456,0,0,0,4.814-4.017c.062-.232.121-.459.18-.691a43.074,43.074,0,0,1-5.207,4.41c-8.713,6.277-15.978,6.707-23.673,7.166-7.35.437-14.946.886-24.8,6.108q-13.709,7.26-23.5,21.8l.349.143C132.641,277.524,140.432,270.288,149.494,265.485Z" transform="translate(-89.197 -175.447)" fill="#011865"/>
      <path id="Path_413" data-name="Path 413" d="M171.927,301.018c9.79-5.182,17.345-5.63,24.655-6.064,6.174-.367,12.076-.735,18.672-4.042l.3-.566c-6.725,3.524-12.715,3.881-18.992,4.255-7.35.437-14.946.886-24.8,6.108a63.838,63.838,0,0,0-21.542,19.006l.386.1A63.511,63.511,0,0,1,171.927,301.018Z" transform="translate(-106.486 -205.836)" fill="#011865"/>
      <path id="Path_414" data-name="Path 414" d="M196.579,327.093c9.79-5.182,17.345-5.63,24.655-6.063,2.69-.162,5.329-.32,7.993-.735.11-.14.217-.283.323-.423-2.782.445-5.531.606-8.338.775-7.35.437-14.946.886-24.8,6.108a62.385,62.385,0,0,0-18.676,15.387l.441.048A62.227,62.227,0,0,1,196.579,327.093Z" transform="translate(-125.993 -226.766)" fill="#011865"/>
      <path id="Path_415" data-name="Path 415" d="M225.152,346.688a60.368,60.368,0,0,0-14.13,10.426l.562-.037a60.122,60.122,0,0,1,13.737-10.065c8.629-4.568,15.523-5.457,22.049-5.9l.408-.4C241.093,341.15,234.034,341.985,225.152,346.688Z" transform="translate(-149.59 -241.54)" fill="#011865"/>
      <path id="Path_416" data-name="Path 416" d="M85.781,10.569A43.73,43.73,0,0,0,95.471.985l-.5.051a43.3,43.3,0,0,1-9.4,9.235c-8.584,6.185-15.765,6.7-23.346,7.144l-.367.393h.062C69.663,17.341,76.983,16.908,85.781,10.569Z" transform="translate(-43.847 -0.713)" fill="#011865"/>
      <path id="Path_417" data-name="Path 417" d="M78.04,15.051A45.841,45.841,0,0,0,91.247.05h-.419a45.4,45.4,0,0,1-13,14.718c-8.713,6.277-15.978,6.71-23.673,7.166A87.585,87.585,0,0,0,44,22.948l-.323.43a84.328,84.328,0,0,1,10.5-1.077C61.922,21.824,69.242,21.39,78.04,15.051Z" transform="translate(-30.961 -0.05)" fill="#011865"/>
      <path id="Path_418" data-name="Path 418" d="M70.245,22.021C78,16.436,82.306,9.63,85.76,2.688l-.367-.062c-3.425,6.865-7.7,13.6-15.346,19.109-8.713,6.277-15.978,6.71-23.673,7.166-6.284.367-12.759.761-20.667,4.131l-.283.522c8.033-3.528,14.593-3.921,20.958-4.3C54.127,28.794,61.448,28.361,70.245,22.021Z" transform="translate(-18.022 -1.876)" fill="#011865"/>
      <path id="Path_419" data-name="Path 419" d="M40.224,38.268c7.747-.463,15.067-.9,23.864-7.236C73.154,24.5,77.5,16.311,81.287,8.185l-.367-.107c-3.763,8.085-8.085,16.2-17.055,22.655-8.713,6.277-15.978,6.71-23.673,7.166-7.35.437-14.946.886-24.8,6.108a58.126,58.126,0,0,0-5.711,3.458l-.2.588a58.37,58.37,0,0,1,6.078-3.723C25.355,39.168,32.915,38.7,40.224,38.268Z" transform="translate(-6.72 -5.742)" fill="#011865"/>
      <path id="Path_420" data-name="Path 420" d="M38.962,49.113c7.747-.463,15.067-.9,23.864-7.236,10.032-7.225,14.291-16.485,18.4-25.445l.073-.165-.334-.147-.074.158c-4.094,8.915-8.327,18.132-18.279,25.3-8.713,6.277-15.978,6.71-23.673,7.166-7.35.437-14.946.886-24.8,6.108A60.312,60.312,0,0,0,.515,64.775c-.026.195-.051.39-.073.588A60.021,60.021,0,0,1,14.307,55.169C24.093,50.013,31.652,49.546,38.962,49.113Z" transform="translate(-0.313 -11.442)" fill="#011865"/>
      <path id="Path_421" data-name="Path 421" d="M19.139,67.784c9.786-5.182,17.345-5.63,24.655-6.063,7.747-.463,15.067-.9,23.864-7.236C77.69,47.26,81.949,38,86.058,29.04q.5-1.1,1.011-2.2l-.32-.187q-.514,1.1-1.025,2.227c-4.094,8.915-8.327,18.132-18.279,25.3-8.713,6.277-15.978,6.71-23.673,7.166-7.35.437-14.946.886-24.8,6.108A62.293,62.293,0,0,0,0,83.2c.018.173.033.342.051.514A62.308,62.308,0,0,1,19.139,67.784Z" transform="translate(0 -18.905)" fill="#011865"/>
      <path id="Path_422" data-name="Path 422" d="M28.758,82.28C38.544,77.1,46.1,76.65,53.412,76.216c7.747-.463,15.067-.9,23.864-7.236,10.032-7.225,14.291-16.485,18.4-25.445q.8-1.746,1.606-3.469l-.3-.228q-.832,1.753-1.643,3.543c-4.094,8.915-8.327,18.132-18.279,25.3-8.713,6.277-15.978,6.71-23.673,7.166-7.35.437-14.946.886-24.8,6.108A64.527,64.527,0,0,0,6.312,101.977c.048.151.092.3.136.445A64.3,64.3,0,0,1,28.758,82.28Z" transform="translate(-4.474 -28.256)" fill="#011865"/>
      <path id="Path_423" data-name="Path 423" d="M41.562,98.664c9.786-5.182,17.345-5.63,24.655-6.063,7.747-.463,15.067-.9,23.864-7.236,10.032-7.225,14.291-16.485,18.4-25.445.61-1.334,1.216-2.653,1.837-3.954l-.276-.272c-.643,1.341-1.268,2.7-1.9,4.072-4.094,8.915-8.327,18.132-18.279,25.3-8.713,6.277-15.978,6.71-23.673,7.166-7.35.437-14.946.886-24.8,6.108-9.507,5.035-17.621,12.73-24.276,22.979q.1.2.187.386C23.945,111.415,32.055,103.7,41.562,98.664Z" transform="translate(-12.134 -39.495)" fill="#011865"/>
      <path id="Path_424" data-name="Path 424" d="M56.353,117.124c9.786-5.182,17.345-5.63,24.655-6.063,7.747-.463,15.067-.9,23.864-7.236,10.032-7.225,14.291-16.485,18.4-25.445q.827-1.808,1.657-3.579l-.254-.323c-.588,1.235-1.161,2.484-1.738,3.741-4.094,8.915-8.327,18.132-18.279,25.3-8.713,6.277-15.978,6.71-23.673,7.166-7.35.437-14.946.886-24.8,6.108-10.08,5.347-18.6,13.67-25.459,24.86l.224.338C37.8,130.783,46.292,122.456,56.353,117.124Z" transform="translate(-21.78 -52.81)" fill="#011865"/>
      <path id="Path_425" data-name="Path 425" d="M72.684,138.143c9.79-5.182,17.345-5.63,24.655-6.064,7.747-.463,15.067-.9,23.864-7.236,10.032-7.225,14.291-16.485,18.4-25.445q.5-1.1,1-2.161l-.228-.367q-.551,1.191-1.1,2.392c-4.094,8.915-8.327,18.132-18.279,25.3-8.713,6.277-15.978,6.707-23.673,7.166-7.35.437-14.946.886-24.8,6.108C62.162,143.321,53.464,151.949,46.5,163.6c.085.1.165.2.25.294C53.692,152.232,62.365,143.611,72.684,138.143Z" transform="translate(-32.966 -68.684)" fill="#011865"/>
      <path id="Path_426" data-name="Path 426" d="M90.24,162.312c9.79-5.182,17.345-5.63,24.655-6.063,7.747-.463,15.067-.9,23.864-7.236,9.8-7.063,14.089-16.07,18.121-24.838-.062-.158-.129-.312-.191-.467-4.042,8.82-8.3,17.915-18.143,25.007-8.713,6.277-15.978,6.707-23.673,7.166-7.35.437-14.946.886-24.8,6.108C79.7,167.5,70.98,176.14,64.012,187.83l.276.254C71.23,176.419,79.921,167.784,90.24,162.312Z" transform="translate(-45.377 -87.709)" fill="#011865"/>
      <path id="Path_427" data-name="Path 427" d="M108.87,191.179c9.79-5.182,17.345-5.63,24.655-6.064,7.747-.463,15.067-.9,23.864-7.236,8.052-5.8,12.381-12.91,15.9-20.123l-.121-.584c-3.543,7.317-7.857,14.549-15.993,20.41-8.713,6.277-15.978,6.707-23.673,7.166-7.35.437-14.946.886-24.8,6.108-10.179,5.391-18.764,13.825-25.665,25.184l.3.213C90.205,204.941,98.745,196.544,108.87,191.179Z" transform="translate(-58.862 -111.431)" fill="#011865"/>
      <path id="Path_428" data-name="Path 428" d="M128.573,226.292c9.79-5.182,17.345-5.63,24.655-6.063,7.747-.463,15.067-.9,23.864-7.236a44.76,44.76,0,0,0,11.888-12.811v-.735a44.653,44.653,0,0,1-12.127,13.229c-8.713,6.277-15.978,6.707-23.673,7.166-7.35.437-14.946.886-24.8,6.108-9.757,5.193-18.051,13.185-24.805,23.842.107.059.217.114.323.176C110.614,239.363,118.868,231.418,128.573,226.292Z" transform="translate(-73.421 -141.399)" fill="#011865"/>
      <path id="Path_429" data-name="Path 429" d="M149.494,265.485c9.79-5.182,17.345-5.63,24.655-6.063,7.747-.463,15.067-.9,23.864-7.236a43.456,43.456,0,0,0,4.814-4.017c.062-.232.121-.459.18-.691a43.074,43.074,0,0,1-5.207,4.41c-8.713,6.277-15.978,6.707-23.673,7.166-7.35.437-14.946.886-24.8,6.108q-13.709,7.26-23.5,21.8l.349.143C132.641,277.524,140.432,270.288,149.494,265.485Z" transform="translate(-89.197 -175.447)" fill="#011865"/>
      <path id="Path_430" data-name="Path 430" d="M171.927,301.018c9.79-5.182,17.345-5.63,24.655-6.064,6.174-.367,12.076-.735,18.672-4.042l.3-.566c-6.725,3.524-12.715,3.881-18.992,4.255-7.35.437-14.946.886-24.8,6.108a63.838,63.838,0,0,0-21.542,19.006l.386.1A63.511,63.511,0,0,1,171.927,301.018Z" transform="translate(-106.486 -205.836)" fill="#011865"/>
      <path id="Path_431" data-name="Path 431" d="M196.579,327.093c9.79-5.182,17.345-5.63,24.655-6.063,2.69-.162,5.329-.32,7.993-.735.11-.14.217-.283.323-.423-2.782.445-5.531.606-8.338.775-7.35.437-14.946.886-24.8,6.108a62.385,62.385,0,0,0-18.676,15.387l.441.048A62.227,62.227,0,0,1,196.579,327.093Z" transform="translate(-125.993 -226.766)" fill="#011865"/>
      <path id="Path_432" data-name="Path 432" d="M225.152,346.688a60.368,60.368,0,0,0-14.13,10.426l.562-.037a60.122,60.122,0,0,1,13.737-10.065c8.629-4.568,15.523-5.457,22.049-5.9l.408-.4C241.093,341.15,234.034,341.985,225.152,346.688Z" transform="translate(-149.59 -241.54)" fill="#011865"/>
    </g>
  </g>
</svg>
