<svg xmlns="http://www.w3.org/2000/svg" width="1761.5" height="375.96" viewBox="0 0 1761.5 375.96">
  <g id="Footer" transform="translate(-78.5 -5815.54)">
    <g id="Background" transform="translate(80 5392)">
      <g id="Layer_1" data-name="Layer 1" transform="translate(0 425)">
        <path id="Path_464" data-name="Path 464" d="M1068.49,333.53c21.35-25.82,5.3-48.64,22.22-70s42-12.64,58.12-40.5,5.7-39.84,21.32-70.14,48.25-14.93,70.66-52.47,74.62-3.78,111.18-30c35.67-25.62,55.08-68.31,56-70.38H10A10,10,0,0,0,0,10V363a10,10,0,0,0,10,10H996.51S1047.15,359.34,1068.49,333.53Z" fill="#fff" stroke="#011865" stroke-width="3"/>
        <path id="Path_465" data-name="Path 465" d="M1750,0H1408c-.93,2.07-20.34,44.76-56,70.38-36.56,26.26-88.77-7.5-111.18,30s-55,22.17-70.66,52.47S1165,195.16,1148.83,223s-41.19,19.14-58.12,40.5-.87,44.18-22.22,70-72,39.46-72,39.47H1750a10,10,0,0,0,10-10V10A10,10,0,0,0,1750,0Z" fill="#fff"/>
        <path id="Path_467" data-name="Path 467" d="M1750-.174,1402.61,0c-.918,2.07-26.726,56.571-61.919,82.191-36.081,26.26-87.607-7.5-109.724,30s-47.627,10.359-63.082,40.659-5.092,42.31-21.051,70.15-40.651,19.14-57.359,40.5-.859,44.18-21.929,70-71.057,39.46-71.057,39.47h743.641a9.935,9.935,0,0,0,9.869-10Z" transform="translate(10)" fill="#011865"/>
      </g>
    </g>
    <g id="Fingerprint" transform="translate(131.775 5901)">
      <path id="Path_399" data-name="Path 399" d="M104.382,18.02A77.728,77.728,0,0,0,121.607.985l-.895.091A76.959,76.959,0,0,1,104,17.491c-15.258,10.993-28.022,11.9-41.5,12.7l-.653.7h.111C75.734,30.058,88.745,29.287,104.382,18.02Z" transform="translate(-29.848 -0.501)" fill="#011865"/>
      <path id="Path_400" data-name="Path 400" d="M104.755,26.713c10.9-7.838,17.963-17.055,23.475-26.663h-.745c-5.448,9.432-12.41,18.459-23.11,26.16C88.89,37.367,75.976,38.138,62.3,38.948a155.677,155.677,0,0,0-18.047,1.8l-.575.764A149.889,149.889,0,0,1,62.338,39.6C76.107,38.752,89.118,37.981,104.755,26.713Z" transform="translate(-21.076 -0.05)" fill="#011865"/>
      <path id="Path_401" data-name="Path 401" d="M105.092,37.1c13.789-9.928,21.437-22.025,27.577-34.364l-.653-.111c-6.088,12.2-13.678,24.168-27.277,33.966-15.487,11.156-28.4,11.927-42.078,12.737-11.169.653-22.679,1.352-36.735,7.342l-.5.928c14.279-6.271,25.938-6.969,37.251-7.636C76.443,49.139,89.455,48.368,105.092,37.1Z" transform="translate(-12.268 -1.293)" fill="#011865"/>
      <path id="Path_402" data-name="Path 402" d="M64.125,61.738c13.769-.823,26.78-1.594,42.418-12.861C122.657,37.27,130.384,22.71,137.112,8.268l-.653-.189c-6.689,14.37-14.37,28.786-30.314,40.269C90.658,59.5,77.744,60.275,64.067,61.085,51,61.862,37.5,62.659,19.983,71.941a103.315,103.315,0,0,0-10.15,6.146L9.48,79.132a103.75,103.75,0,0,1,10.8-6.617C37.7,63.338,51.134,62.509,64.125,61.738Z" transform="translate(-4.575 -3.925)" fill="#011865"/>
      <path id="Path_403" data-name="Path 403" d="M68.908,74.763c13.769-.823,26.781-1.594,42.418-12.861,17.832-12.842,25.4-29.3,32.7-45.226l.131-.294-.594-.261-.131.281c-7.276,15.846-14.8,32.228-32.489,44.972C95.46,72.529,82.547,73.3,68.869,74.109c-13.064.777-26.565,1.574-44.083,10.856A107.2,107.2,0,0,0,.572,102.6c-.046.346-.091.692-.131,1.045A106.685,106.685,0,0,1,25.086,85.527C42.481,76.363,55.917,75.533,68.908,74.763Z" transform="translate(-0.213 -7.805)" fill="#011865"/>
      <path id="Path_404" data-name="Path 404" d="M34.018,99.765c17.394-9.21,30.83-10.007,43.822-10.778,13.769-.823,26.781-1.594,42.418-12.861,17.832-12.842,25.4-29.3,32.7-45.226q.895-1.96,1.8-3.919l-.568-.333q-.914,1.96-1.822,3.958c-7.276,15.846-14.8,32.228-32.489,44.972C104.392,86.734,91.478,87.5,77.8,88.315c-13.064.777-26.565,1.574-44.083,10.856A110.722,110.722,0,0,0,0,127.166c.033.307.059.607.091.914A110.75,110.75,0,0,1,34.018,99.765Z" transform="translate(0 -12.885)" fill="#011865"/>
      <path id="Path_405" data-name="Path 405" d="M46.208,115.275c17.394-9.21,30.83-10.007,43.822-10.778,13.769-.823,26.781-1.594,42.418-12.861,17.832-12.842,25.4-29.3,32.7-45.226q1.417-3.1,2.854-6.166l-.529-.4q-1.479,3.116-2.92,6.3c-7.276,15.846-14.8,32.228-32.489,44.972-15.487,11.156-28.4,11.927-42.078,12.737-13.064.777-26.565,1.574-44.083,10.856-15.232,8.067-28.453,19.974-39.6,35.585.085.268.163.529.242.79C17.7,135.347,30.937,123.368,46.208,115.275Z" transform="translate(-3.046 -19.251)" fill="#011865"/>
      <path id="Path_406" data-name="Path 406" d="M60.567,132.07c17.394-9.21,30.83-10.007,43.822-10.778,13.769-.823,26.781-1.594,42.418-12.861,17.832-12.842,25.4-29.3,32.7-45.226,1.084-2.371,2.162-4.716,3.266-7.028l-.49-.483c-1.143,2.384-2.253,4.8-3.37,7.237-7.276,15.846-14.8,32.228-32.489,44.972-15.487,11.156-28.4,11.927-42.078,12.737-13.064.777-26.565,1.574-44.083,10.856-16.9,8.949-31.32,22.626-43.149,40.844q.17.353.333.686C29.253,154.736,43.669,141.025,60.567,132.07Z" transform="translate(-8.26 -26.901)" fill="#011865"/>
      <path id="Path_407" data-name="Path 407" d="M76.278,150.279c17.394-9.21,30.83-10.007,43.822-10.778,13.769-.823,26.781-1.594,42.418-12.861,17.832-12.842,25.4-29.3,32.7-45.226q1.47-3.214,2.946-6.362l-.451-.575c-1.045,2.195-2.064,4.416-3.09,6.649-7.276,15.846-14.8,32.228-32.489,44.972-15.487,11.156-28.4,11.927-42.078,12.737-13.064.777-26.565,1.574-44.083,10.856-17.917,9.5-33.064,24.3-45.253,44.188l.4.6C43.292,174.558,58.394,159.757,76.278,150.279Z" transform="translate(-14.826 -35.965)" fill="#011865"/>
      <path id="Path_408" data-name="Path 408" d="M93.037,170.23c17.4-9.21,30.83-10.007,43.822-10.778,13.769-.823,26.781-1.594,42.418-12.861,17.832-12.842,25.4-29.3,32.7-45.226q.882-1.96,1.77-3.841l-.4-.653q-.98,2.116-1.96,4.252c-7.276,15.846-14.8,32.228-32.489,44.972-15.487,11.156-28.4,11.921-42.078,12.737-13.064.777-26.565,1.574-44.083,10.856-18.4,9.745-33.861,25.082-46.232,45.788.15.176.294.353.444.523C59.28,195.273,74.7,179.949,93.037,170.23Z" transform="translate(-22.441 -46.771)" fill="#011865"/>
      <path id="Path_409" data-name="Path 409" d="M110.63,192.324c17.4-9.21,30.83-10.007,43.822-10.778,13.769-.823,26.781-1.594,42.418-12.861,17.427-12.554,25.043-28.564,32.208-44.149-.111-.281-.229-.555-.34-.83-7.185,15.676-14.755,31.843-32.248,44.449-15.487,11.156-28.4,11.921-42.078,12.737-13.064.777-26.565,1.574-44.083,10.856C91.89,201.547,76.4,216.9,64.012,237.681l.49.451C76.841,217.4,92.289,202.05,110.63,192.324Z" transform="translate(-30.889 -59.722)" fill="#011865"/>
      <path id="Path_410" data-name="Path 410" d="M128.954,217.617c17.4-9.21,30.83-10.007,43.822-10.778,13.769-.823,26.781-1.594,42.418-12.861,14.311-10.307,22.006-22.946,28.263-35.768l-.216-1.039c-6.3,13-13.965,25.859-28.427,36.278-15.487,11.156-28.4,11.921-42.078,12.737-13.064.777-26.565,1.574-44.083,10.856C110.561,226.625,95.3,241.615,83.035,261.8l.536.379C95.779,242.079,110.959,227.154,128.954,217.617Z" transform="translate(-40.069 -75.87)" fill="#011865"/>
      <path id="Path_411" data-name="Path 411" d="M148.01,247.162c17.4-9.21,30.83-10.007,43.822-10.778,13.769-.823,26.78-1.594,42.418-12.861a79.558,79.558,0,0,0,21.13-22.77v-1.306a79.368,79.368,0,0,1-21.555,23.515c-15.487,11.156-28.4,11.921-42.078,12.737-13.064.777-26.565,1.574-44.083,10.856-17.342,9.229-32.084,23.436-44.09,42.379.189.1.385.2.575.314C116.088,270.4,130.759,256.274,148.01,247.162Z" transform="translate(-49.98 -96.27)" fill="#011865"/>
      <path id="Path_412" data-name="Path 412" d="M167.893,279.484c17.4-9.21,30.83-10.007,43.822-10.777,13.769-.823,26.781-1.594,42.418-12.861a77.247,77.247,0,0,0,8.557-7.139c.111-.411.216-.816.32-1.228a76.563,76.563,0,0,1-9.256,7.838c-15.487,11.156-28.4,11.921-42.078,12.737-13.064.777-26.565,1.574-44.083,10.856q-24.367,12.9-41.765,38.74l.621.255C137.938,300.882,151.786,288.021,167.893,279.484Z" transform="translate(-60.719 -119.448)" fill="#011865"/>
      <path id="Path_413" data-name="Path 413" d="M188.806,309.315c17.4-9.21,30.83-10.007,43.822-10.778,10.973-.653,21.464-1.306,33.188-7.185l.529-1.006c-11.953,6.264-22.6,6.9-33.757,7.564-13.064.777-26.565,1.574-44.083,10.856q-21.96,11.62-38.29,33.783l.686.176C161.653,328.172,174.319,316.99,188.806,309.315Z" transform="translate(-72.487 -140.134)" fill="#011865"/>
      <path id="Path_414" data-name="Path 414" d="M211.23,332.707c17.4-9.21,30.83-10.007,43.822-10.777,4.781-.287,9.471-.568,14.207-1.306.2-.248.385-.5.575-.751-4.945.79-9.83,1.078-14.821,1.378-13.064.777-26.565,1.574-44.083,10.856a110.887,110.887,0,0,0-33.195,27.349l.784.085A110.605,110.605,0,0,1,211.23,332.707Z" transform="translate(-85.767 -154.382)" fill="#011865"/>
      <path id="Path_415" data-name="Path 415" d="M236.137,351.334a107.3,107.3,0,0,0-25.115,18.531l1-.065a106.861,106.861,0,0,1,24.416-17.891c15.337-8.119,27.59-9.7,39.191-10.49l.725-.705C264.472,341.49,251.925,342.973,236.137,351.334Z" transform="translate(-101.83 -164.439)" fill="#011865"/>
      <path id="Path_416" data-name="Path 416" d="M104.382,18.02A77.728,77.728,0,0,0,121.607.985l-.895.091A76.959,76.959,0,0,1,104,17.491c-15.258,10.993-28.022,11.9-41.5,12.7l-.653.7h.111C75.734,30.058,88.745,29.287,104.382,18.02Z" transform="translate(-29.848 -0.501)" fill="#011865"/>
      <path id="Path_417" data-name="Path 417" d="M104.755,26.713c10.9-7.838,17.963-17.055,23.475-26.663h-.745c-5.448,9.432-12.41,18.459-23.11,26.16C88.89,37.367,75.976,38.138,62.3,38.948a155.677,155.677,0,0,0-18.047,1.8l-.575.764A149.889,149.889,0,0,1,62.338,39.6C76.107,38.752,89.118,37.981,104.755,26.713Z" transform="translate(-21.076 -0.05)" fill="#011865"/>
      <path id="Path_418" data-name="Path 418" d="M105.092,37.1c13.789-9.928,21.437-22.025,27.577-34.364l-.653-.111c-6.088,12.2-13.678,24.168-27.277,33.966-15.487,11.156-28.4,11.927-42.078,12.737-11.169.653-22.679,1.352-36.735,7.342l-.5.928c14.279-6.271,25.938-6.969,37.251-7.636C76.443,49.139,89.455,48.368,105.092,37.1Z" transform="translate(-12.268 -1.293)" fill="#011865"/>
      <path id="Path_419" data-name="Path 419" d="M64.125,61.738c13.769-.823,26.78-1.594,42.418-12.861C122.657,37.27,130.384,22.71,137.112,8.268l-.653-.189c-6.689,14.37-14.37,28.786-30.314,40.269C90.658,59.5,77.744,60.275,64.067,61.085,51,61.862,37.5,62.659,19.983,71.941a103.315,103.315,0,0,0-10.15,6.146L9.48,79.132a103.75,103.75,0,0,1,10.8-6.617C37.7,63.338,51.134,62.509,64.125,61.738Z" transform="translate(-4.575 -3.925)" fill="#011865"/>
      <path id="Path_420" data-name="Path 420" d="M68.908,74.763c13.769-.823,26.781-1.594,42.418-12.861,17.832-12.842,25.4-29.3,32.7-45.226l.131-.294-.594-.261-.131.281c-7.276,15.846-14.8,32.228-32.489,44.972C95.46,72.529,82.547,73.3,68.869,74.109c-13.064.777-26.565,1.574-44.083,10.856A107.2,107.2,0,0,0,.572,102.6c-.046.346-.091.692-.131,1.045A106.685,106.685,0,0,1,25.086,85.527C42.481,76.363,55.917,75.533,68.908,74.763Z" transform="translate(-0.213 -7.805)" fill="#011865"/>
      <path id="Path_421" data-name="Path 421" d="M34.018,99.765c17.394-9.21,30.83-10.007,43.822-10.778,13.769-.823,26.781-1.594,42.418-12.861,17.832-12.842,25.4-29.3,32.7-45.226q.895-1.96,1.8-3.919l-.568-.333q-.914,1.96-1.822,3.958c-7.276,15.846-14.8,32.228-32.489,44.972C104.392,86.734,91.478,87.5,77.8,88.315c-13.064.777-26.565,1.574-44.083,10.856A110.722,110.722,0,0,0,0,127.166c.033.307.059.607.091.914A110.75,110.75,0,0,1,34.018,99.765Z" transform="translate(0 -12.885)" fill="#011865"/>
      <path id="Path_422" data-name="Path 422" d="M46.208,115.275c17.394-9.21,30.83-10.007,43.822-10.778,13.769-.823,26.781-1.594,42.418-12.861,17.832-12.842,25.4-29.3,32.7-45.226q1.417-3.1,2.854-6.166l-.529-.4q-1.479,3.116-2.92,6.3c-7.276,15.846-14.8,32.228-32.489,44.972-15.487,11.156-28.4,11.927-42.078,12.737-13.064.777-26.565,1.574-44.083,10.856-15.232,8.067-28.453,19.974-39.6,35.585.085.268.163.529.242.79C17.7,135.347,30.937,123.368,46.208,115.275Z" transform="translate(-3.046 -19.251)" fill="#011865"/>
      <path id="Path_423" data-name="Path 423" d="M60.567,132.07c17.394-9.21,30.83-10.007,43.822-10.778,13.769-.823,26.781-1.594,42.418-12.861,17.832-12.842,25.4-29.3,32.7-45.226,1.084-2.371,2.162-4.716,3.266-7.028l-.49-.483c-1.143,2.384-2.253,4.8-3.37,7.237-7.276,15.846-14.8,32.228-32.489,44.972-15.487,11.156-28.4,11.927-42.078,12.737-13.064.777-26.565,1.574-44.083,10.856-16.9,8.949-31.32,22.626-43.149,40.844q.17.353.333.686C29.253,154.736,43.669,141.025,60.567,132.07Z" transform="translate(-8.26 -26.901)" fill="#011865"/>
      <path id="Path_424" data-name="Path 424" d="M76.278,150.279c17.394-9.21,30.83-10.007,43.822-10.778,13.769-.823,26.781-1.594,42.418-12.861,17.832-12.842,25.4-29.3,32.7-45.226q1.47-3.214,2.946-6.362l-.451-.575c-1.045,2.195-2.064,4.416-3.09,6.649-7.276,15.846-14.8,32.228-32.489,44.972-15.487,11.156-28.4,11.927-42.078,12.737-13.064.777-26.565,1.574-44.083,10.856-17.917,9.5-33.064,24.3-45.253,44.188l.4.6C43.292,174.558,58.394,159.757,76.278,150.279Z" transform="translate(-14.826 -35.965)" fill="#011865"/>
      <path id="Path_425" data-name="Path 425" d="M93.037,170.23c17.4-9.21,30.83-10.007,43.822-10.778,13.769-.823,26.781-1.594,42.418-12.861,17.832-12.842,25.4-29.3,32.7-45.226q.882-1.96,1.77-3.841l-.4-.653q-.98,2.116-1.96,4.252c-7.276,15.846-14.8,32.228-32.489,44.972-15.487,11.156-28.4,11.921-42.078,12.737-13.064.777-26.565,1.574-44.083,10.856-18.4,9.745-33.861,25.082-46.232,45.788.15.176.294.353.444.523C59.28,195.273,74.7,179.949,93.037,170.23Z" transform="translate(-22.441 -46.771)" fill="#011865"/>
      <path id="Path_426" data-name="Path 426" d="M110.63,192.324c17.4-9.21,30.83-10.007,43.822-10.778,13.769-.823,26.781-1.594,42.418-12.861,17.427-12.554,25.043-28.564,32.208-44.149-.111-.281-.229-.555-.34-.83-7.185,15.676-14.755,31.843-32.248,44.449-15.487,11.156-28.4,11.921-42.078,12.737-13.064.777-26.565,1.574-44.083,10.856C91.89,201.547,76.4,216.9,64.012,237.681l.49.451C76.841,217.4,92.289,202.05,110.63,192.324Z" transform="translate(-30.889 -59.722)" fill="#011865"/>
      <path id="Path_427" data-name="Path 427" d="M128.954,217.617c17.4-9.21,30.83-10.007,43.822-10.778,13.769-.823,26.781-1.594,42.418-12.861,14.311-10.307,22.006-22.946,28.263-35.768l-.216-1.039c-6.3,13-13.965,25.859-28.427,36.278-15.487,11.156-28.4,11.921-42.078,12.737-13.064.777-26.565,1.574-44.083,10.856C110.561,226.625,95.3,241.615,83.035,261.8l.536.379C95.779,242.079,110.959,227.154,128.954,217.617Z" transform="translate(-40.069 -75.87)" fill="#011865"/>
      <path id="Path_428" data-name="Path 428" d="M148.01,247.162c17.4-9.21,30.83-10.007,43.822-10.778,13.769-.823,26.78-1.594,42.418-12.861a79.558,79.558,0,0,0,21.13-22.77v-1.306a79.368,79.368,0,0,1-21.555,23.515c-15.487,11.156-28.4,11.921-42.078,12.737-13.064.777-26.565,1.574-44.083,10.856-17.342,9.229-32.084,23.436-44.09,42.379.189.1.385.2.575.314C116.088,270.4,130.759,256.274,148.01,247.162Z" transform="translate(-49.98 -96.27)" fill="#011865"/>
      <path id="Path_429" data-name="Path 429" d="M167.893,279.484c17.4-9.21,30.83-10.007,43.822-10.777,13.769-.823,26.781-1.594,42.418-12.861a77.247,77.247,0,0,0,8.557-7.139c.111-.411.216-.816.32-1.228a76.563,76.563,0,0,1-9.256,7.838c-15.487,11.156-28.4,11.921-42.078,12.737-13.064.777-26.565,1.574-44.083,10.856q-24.367,12.9-41.765,38.74l.621.255C137.938,300.882,151.786,288.021,167.893,279.484Z" transform="translate(-60.719 -119.448)" fill="#011865"/>
      <path id="Path_430" data-name="Path 430" d="M188.806,309.315c17.4-9.21,30.83-10.007,43.822-10.778,10.973-.653,21.464-1.306,33.188-7.185l.529-1.006c-11.953,6.264-22.6,6.9-33.757,7.564-13.064.777-26.565,1.574-44.083,10.856q-21.96,11.62-38.29,33.783l.686.176C161.653,328.172,174.319,316.99,188.806,309.315Z" transform="translate(-72.487 -140.134)" fill="#011865"/>
      <path id="Path_431" data-name="Path 431" d="M211.23,332.707c17.4-9.21,30.83-10.007,43.822-10.777,4.781-.287,9.471-.568,14.207-1.306.2-.248.385-.5.575-.751-4.945.79-9.83,1.078-14.821,1.378-13.064.777-26.565,1.574-44.083,10.856a110.887,110.887,0,0,0-33.195,27.349l.784.085A110.605,110.605,0,0,1,211.23,332.707Z" transform="translate(-85.767 -154.382)" fill="#011865"/>
      <path id="Path_432" data-name="Path 432" d="M236.137,351.334a107.3,107.3,0,0,0-25.115,18.531l1-.065a106.861,106.861,0,0,1,24.416-17.891c15.337-8.119,27.59-9.7,39.191-10.49l.725-.705C264.472,341.49,251.925,342.973,236.137,351.334Z" transform="translate(-101.83 -164.439)" fill="#011865"/>
    </g>
    <text id="Logo" transform="translate(732 6028)" fill="#191919" font-size="74" font-family="Comfortaa" font-weight="700"><tspan x="0" y="0">epic</tspan></text>
    <path id="Line" d="M10893.512,11183s50.632-13.657,71.982-39.474,5.294-48.641,22.218-70,41.973-12.637,58.116-40.5,5.7-39.835,21.324-70.135,48.249-14.927,70.66-52.468c13.133-22,36.473-14.153,61.149-13.6,17.051.379,34.895-5.568,50.029-16.439,36.558-26.258,56.045-70.466,56.045-70.466" transform="translate(-9817 -4993)" fill="none" stroke="#8f75eb" stroke-width="3"/>
  </g>
</svg>
