<svg xmlns="http://www.w3.org/2000/svg" width="27.001" height="26.01" viewBox="0 0 27.001 26.01"><defs></defs><g transform="translate(0.751 0.75)"><path class="a" d="M10,4.51H2.44A2.44,2.44,0,0,0,0,7V22.07a2.44,2.44,0,0,0,2.44,2.44H17.56A2.44,2.44,0,0,0,20,22.07V14.51H19v7.56a1.45,1.45,0,0,1-1.44,1.44H2.44A1.45,1.45,0,0,1,1,22.07V7A1.45,1.45,0,0,1,2.44,5.51H10Z"/><path class="b" d="M9.09,16.88A27.57,27.57,0,0,1,13.5,10a28.13,28.13,0,0,1,11-7.63"/><path class="a" d="M23.09,7.51l-.92-.4,1.98-4.52L19.5.94,19.84,0,25.5,2.01Z"/></g></svg>