<svg xmlns="http://www.w3.org/2000/svg" width="38.065" height="38.074"><defs><radialGradient id="b" cx=".5" cy=".5" r=".5" gradientUnits="objectBoundingBox"><stop offset="0" stop-color="#a7b9f2"/><stop offset="1" stop-color="#011865"/></radialGradient><clipPath id="a"><path data-name="Path 947" d="M24.633 20.16h1.89V12.6A12.6 12.6 0 0013.923 0H12.6A12.6 12.6 0 000 12.6v7.56h3.78V12.6a8.82 8.82 0 018.82-8.82h1.26a8.82 8.82 0 018.82 8.82v7.56z" transform="translate(81.374 72.639)" fill="#fff"/></clipPath></defs><g data-name="Group 283"><g data-name="Group 256"><g data-name="Mask Group 20" clip-path="url(#a)" transform="rotate(-135 42.905 68.325)"><g data-name="Rectangle 175" transform="translate(64.112 52.354)" stroke="#707070" fill="url(#b)"><path stroke="none" d="M0 0h62v64H0z"/><path fill="none" d="M.5.5h61v63H.5z"/></g></g></g><path data-name="Rectangle 184" fill="#6277b8" d="M35.392 21.436l-2.673-2.673 2.673-2.673 2.673 2.673z"/>
  <path data-name="Rectangle 185" fill="#6277b8" d="M19.3 5.345l-2.672-2.673L19.301 0l2.673 2.672z"/></g>
</svg>