<svg id="Menu_-_Mobile" data-name="Menu - Mobile" xmlns="http://www.w3.org/2000/svg" xmlns:xlink="http://www.w3.org/1999/xlink" width="97" height="90" viewBox="0 0 97 90">
  <defs>
    <clipPath id="clip-path">
      <rect id="Mask" width="97" height="90" fill="#fff"/>
    </clipPath>
  </defs>
  <g id="Mask-2" data-name="Mask" clip-path="url(#clip-path)">
    <g id="Background" transform="translate(-99 -80)" fill="#011865">
      <path d="M 61.60201263427734 173.4279327392578 C 57.92751312255859 173.4279327392578 54.21871185302734 173.0695037841797 50.57868576049805 172.3626556396484 C 46.88908767700195 171.6461639404297 43.25033569335938 170.5675811767578 39.7635383605957 169.1568603515625 C 32.44466400146484 166.1957550048828 25.90261268615723 161.8593902587891 20.31906318664551 156.2681579589844 C 7.680437564849854 143.6121520996094 1.000012516975403 125.5381088256836 1.000012516975403 104.0000076293945 C 1.000012516975403 97.01093292236328 1.704062461853027 90.02655792236328 3.092612504959106 83.24085998535156 C 4.44578742980957 76.62813568115234 6.464887619018555 70.12363433837891 9.093862533569336 63.90805816650391 C 11.67518711090088 57.80510711669922 14.87021255493164 51.91873168945312 18.59018707275391 46.41243362426758 C 22.2750129699707 40.95818328857422 26.50681304931641 35.82920837402344 31.16801261901855 31.16800880432129 C 35.8292121887207 26.50680732727051 40.95818710327148 22.27500915527344 46.41243743896484 18.59018325805664 C 51.91873931884766 14.87020778656006 57.80511093139648 11.67518329620361 63.90806198120117 9.093857765197754 C 70.12363433837891 6.464883327484131 76.62813568115234 4.445783138275146 83.24085998535156 3.092608213424683 C 90.02656555175781 1.704058170318604 97.01094055175781 1.000008225440979 104.0000152587891 1.000008225440979 C 116.1742401123047 1.000008225440979 125.4845886230469 1.937983155250549 131.6724395751953 3.787908315658569 C 136.4763946533203 5.224083423614502 139.3411102294922 7.170458316802979 140.1870422363281 9.572933197021484 C 140.5522155761719 10.61005783081055 140.5397338867188 11.76753330230713 140.1499633789062 13.01320838928223 C 139.8180084228516 14.0741081237793 139.2168121337891 15.20008277893066 138.363037109375 16.35990905761719 C 136.8633422851562 18.39725875854492 135.0997161865234 19.82460784912109 135.0820922851562 19.83878326416016 L 133.9480590820312 20.7503833770752 L 135.2049865722656 21.48293304443359 C 135.3236694335938 21.5520076751709 147.218994140625 28.52023315429688 159.7898864746094 39.58320999145508 C 167.1540832519531 46.06405639648438 173.3053436279297 52.66090774536133 178.0727691650391 59.19053268432617 C 183.9982604980469 67.30628204345703 187.7850646972656 75.33283233642578 189.3280181884766 83.04721069335938 C 191.0233917236328 91.523681640625 191.7397918701172 99.47306060791016 191.4573669433594 106.6745300292969 C 191.3167572021484 110.2592315673828 190.9262084960938 113.7536849975586 190.2965393066406 117.0608062744141 C 189.6706695556641 120.3479080200195 188.7886352539062 123.5544815063477 187.6749420166016 126.5914611816406 C 183.2907409667969 138.5469055175781 175.1215362548828 148.7202606201172 162.7005615234375 157.6928100585938 C 158.0619659423828 161.0436096191406 153.1430816650391 163.3277587890625 147.6628875732422 164.67578125 C 143.1922607421875 165.7754516601562 138.2025909423828 166.2877044677734 131.9600677490234 166.2878570556641 C 128.5119323730469 166.2879333496094 125.0501403808594 166.1443634033203 121.3850860595703 165.9923400878906 C 117.6122131347656 165.8358306884766 113.7108840942383 165.6740112304688 109.7117385864258 165.6740112304688 C 104.3279876708984 165.6740112304688 99.74005889892578 165.9638366699219 95.27326202392578 166.5860595703125 C 89.84593963623047 167.3420867919922 84.76041412353516 168.5782623291016 79.72603607177734 170.3652038574219 C 74.00058746337891 172.3974761962891 67.90278625488281 173.4279327392578 61.60201263427734 173.4279327392578 Z" stroke="none"/>
      <path d="M 104.0000076293945 2 C 97.07814025878906 2 90.16119384765625 2.697250366210938 83.44132232666016 4.07232666015625 C 76.89327239990234 5.412246704101562 70.45240783691406 7.411605834960938 64.29762268066406 10.01484680175781 C 58.25413513183594 12.57102966308594 52.42503356933594 15.7349853515625 46.97221374511719 19.4188232421875 C 41.57072448730469 23.06800842285156 36.4913330078125 27.25889587402344 31.8751220703125 31.87510681152344 C 27.2589111328125 36.49131774902344 23.06797790527344 41.57072448730469 19.41879272460938 46.97224426269531 C 15.73495483398438 52.42503356933594 12.57101440429688 58.25413513183594 10.01483154296875 64.29761505126953 C 7.411590576171875 70.45240020751953 5.412216186523438 76.89327239990234 4.072296142578125 83.44132232666016 C 2.697219848632812 90.16119384765625 1.999984741210938 97.07814025878906 1.999984741210938 104.0000076293945 C 1.999984741210938 125.2674026489258 8.579299926757812 143.0970764160156 21.02664184570312 155.5615386962891 C 26.51473999023438 161.0571899414062 32.94493103027344 165.3194274902344 40.13859558105469 168.2298736572266 C 43.56596374511719 169.6165313720703 47.14266967773438 170.6767120361328 50.76933288574219 171.3810119628906 C 54.34669494628906 172.07568359375 57.99134826660156 172.4279327392578 61.60203552246094 172.4279327392578 C 67.78848266601562 172.4279327392578 73.77371978759766 171.4168701171875 79.39153289794922 169.4228210449219 C 84.49037933349609 167.6129760742188 89.64022064208984 166.361083984375 95.13529968261719 165.5956115722656 C 99.64898681640625 164.9668426513672 104.2807693481445 164.6740112304688 109.711799621582 164.6740112304688 C 113.7322235107422 164.6740112304688 117.6445922851562 164.8362731933594 121.4281387329102 164.9931945800781 C 125.0819549560547 165.1447143554688 128.5331726074219 165.287841796875 131.9600524902344 165.287841796875 C 138.2040710449219 165.287841796875 142.9732971191406 164.7996063232422 147.4239807128906 163.7048034667969 C 152.7770080566406 162.3880310058594 157.5824890136719 160.1563262939453 162.1150054931641 156.8821716308594 C 174.3690948486328 148.0301666259766 182.4227142333984 138.0093536376953 186.7360687255859 126.2471618652344 C 187.8310546875 123.2611923217773 188.6984558105469 120.1075286865234 189.3141632080078 116.8737716674805 C 189.9345855712891 113.6152954101562 190.3194580078125 110.1705856323242 190.4581146240234 106.6353454589844 C 190.7374572753906 99.51266479492188 190.0273284912109 91.64247894287109 188.3474273681641 83.24332427978516 C 186.8341369628906 75.67716217041016 183.1094055175781 67.78837585449219 177.2766723632812 59.79603576660156 C 172.5565338134766 53.32821655273438 166.4600830078125 46.78834533691406 159.1566772460938 40.35806274414062 C 146.656982421875 29.35272216796875 134.8199005126953 22.41587829589844 134.7020874023438 22.34724426269531 L 132.1799926757812 20.88290405273438 L 134.4549255371094 19.05984497070312 C 134.4718322753906 19.04624938964844 136.1610412597656 17.67471313476562 137.5816192626953 15.73451232910156 C 138.7266235351562 14.17066955566406 139.9442749023438 11.889404296875 139.2428283691406 9.902267456054688 C 138.5177154541016 7.848159790039062 135.7992248535156 6.064666748046875 131.3811645507812 4.744552612304688 C 125.2862701416016 2.92340087890625 116.0739059448242 2 104.0000076293945 2 M 104.0000076293945 0 C 161.4376220703125 0 135.7080078125 20.61863708496094 135.7080078125 20.61863708496094 C 135.7080078125 20.61863708496094 183.4140625 48.3798828125 190.30859375 82.85108947753906 C 197.2031097412109 117.3222732543945 187.9020843505859 140.7215576171875 163.2861328125 158.5034027099609 C 153.1296539306641 165.8401641845703 142.8595581054688 167.287841796875 131.9600524902344 167.287841796875 C 124.8608627319336 167.287841796875 117.4917068481445 166.6740112304688 109.7118072509766 166.6740112304688 C 100.4865341186523 166.6740112304688 90.68601226806641 167.5360717773438 80.06053924560547 171.3076171875 C 74.21154022216797 173.3837280273438 67.94966125488281 174.4279327392578 61.60202026367188 174.4279327392578 C 31.76324462890625 174.4279327392578 -1.52587890625e-05 151.3621978759766 -1.52587890625e-05 104.0000076293945 C -1.52587890625e-05 46.56240844726562 46.56240844726562 0 104.0000076293945 0 Z" stroke="none" fill="#fff"/>
    </g>
    <line id="Top_line" data-name="Top line" x2="30.762" transform="translate(21.5 22.5)" fill="none" stroke="#fff" stroke-linecap="round" stroke-width="2"/>
    <line id="Middle_line" data-name="Middle line" x2="27" transform="translate(21.5 31.653)" fill="none" stroke="#fff" stroke-linecap="round" stroke-width="2"/>
    <line id="Bottom_line" data-name="Bottom line" x2="30.762" transform="translate(21.5 40.806)" fill="none" stroke="#fff" stroke-linecap="round" stroke-width="2"/>
    <text id="MENU" transform="translate(21 60)" fill="#fff" font-size="10" font-family="Raleway-Bold, Raleway" font-weight="700" letter-spacing="0.04em"><tspan x="0" y="0">MENU</tspan></text>
  </g>
</svg>
