<svg xmlns="http://www.w3.org/2000/svg" width="82.119" height="96.697"><g transform="translate(.931 1.432)">
  <path data-name="Path 233" d="M7.918 63.315V94.71q-3.439-.168-6.875-.4L0 94.236V63.315a1.225 1.225 0 011.225-1.225H6.69a1.225 1.225 0 011.228 1.225z" fill="#89cce3"/><path data-name="Path 234" d="M18.058 95.1V42.34a1.225 1.225 0 011.225-1.225h5.465a1.225 1.225 0 011.225 1.225v52.9z" fill="#89cce3"/><path data-name="Path 235" d="M36.117 95.265V53.314a1.225 1.225 0 011.225-1.225h5.465a1.225 1.225 0 011.225 1.225v41.861z" fill="#89cce3"/><path data-name="Path 236" d="M62.093 22.198v72.56q-3.959.113-7.918.211V22.198a1.225 1.225 0 011.225-1.225h5.465a1.225 1.225 0 011.228 1.225z" fill="#89cce3"/><path data-name="Path 237" d="M80.151 36.783v57.37c-2.639.128-5.279.218-7.918.3v-57.67a1.225 1.225 0 011.225-1.225h5.465a1.225 1.225 0 011.228 1.225z" fill="#89cce3"/><path data-name="Path 238" d="M4.028 45.006l18.058-20.142 18.058 10.14L58.203 3.889l18.058 14.863" fill="none" stroke="#087ca7" stroke-linecap="round" stroke-miterlimit="10" stroke-width="7"/><circle data-name="Ellipse 83" cx="3.889" cy="3.889" r="3.889" transform="translate(.069 41.117)" fill="#e0f7ff" stroke="#087ca7" stroke-width="2"/><circle data-name="Ellipse 84" cx="3.889" cy="3.889" r="3.889" transform="translate(18.128 20.975)" fill="#e0f7ff" stroke="#087ca7" stroke-width="2"/><circle data-name="Ellipse 85" cx="3.889" cy="3.889" r="3.889" transform="translate(36.186 31.116)" fill="#e0f7ff" stroke="#087ca7" stroke-width="2"/><circle data-name="Ellipse 86" cx="3.889" cy="3.889" r="3.889" transform="translate(54.244)" fill="#e0f7ff" stroke="#087ca7" stroke-width="2"/><circle data-name="Ellipse 202" cx="3.889" cy="3.889" r="3.889" transform="translate(72.238 15.277)" fill="#e0f7ff" stroke="#087ca7" stroke-width="2"/></g>
</svg>