<svg xmlns="http://www.w3.org/2000/svg" width="157.643" height="95.335">
  <path data-name="Path 253" d="M73.439 51.599L98.934 6.925H47.917l-25.522 44.2L47.917 95.33h51.046l25.474-44.122z" fill="#b0d5e4" opacity=".4"/><path data-name="Path 254" d="M130.766 47.461l.048-.083-25.522-44.2h-.027L79.77 47.852z" fill="#0891c4"/><path data-name="Path 255" d="M146.881 4.987a3.94 3.94 0 010-4.255 2.152 2.152 0 011.727-.729 2.188 2.188 0 011.747.729 3.906 3.906 0 010 4.255 2.188 2.188 0 01-1.747.729 2.152 2.152 0 01-1.727-.729zm2.476-.755a2.971 2.971 0 00.236-1.379 2.867 2.867 0 00-.243-1.359.8.8 0 00-.742-.427.774.774 0 00-.722.427 2.935 2.935 0 00-.237 1.359 2.974 2.974 0 00.237 1.372.773.773 0 00.722.427.8.8 0 00.748-.42zm-.84 5.253l5.41-9.35h1.458l-5.424 9.35zm5.023-.637a3.22 3.22 0 01-.624-2.147 3.151 3.151 0 01.624-2.114 2.457 2.457 0 013.48 0 3.95 3.95 0 010 4.262 2.441 2.441 0 01-3.48 0zm2.475-.762a2.975 2.975 0 00.237-1.372 2.872 2.872 0 00-.243-1.359.841.841 0 00-1.464 0 2.94 2.94 0 00-.237 1.359 2.976 2.976 0 00.237 1.372.847.847 0 001.471 0z" fill="#3f3d56"/><path data-name="Path 256" d="M.624 85.644a3.939 3.939 0 010-4.255 2.152 2.152 0 011.727-.729 2.188 2.188 0 011.747.729 3.906 3.906 0 010 4.255 2.188 2.188 0 01-1.747.729 2.152 2.152 0 01-1.727-.729zm2.476-.755a2.971 2.971 0 00.236-1.379 2.866 2.866 0 00-.243-1.359.8.8 0 00-.742-.427.774.774 0 00-.722.427 2.936 2.936 0 00-.237 1.359 2.972 2.972 0 00.237 1.372.773.773 0 00.722.427.8.8 0 00.748-.42zm-.84 5.253l5.41-9.35h1.458l-5.424 9.35zm5.023-.637a3.22 3.22 0 01-.624-2.147 3.151 3.151 0 01.624-2.114 2.458 2.458 0 013.48 0 3.951 3.951 0 010 4.262 2.442 2.442 0 01-3.48 0zm2.475-.762a2.974 2.974 0 00.237-1.372 2.871 2.871 0 00-.243-1.359.841.841 0 00-1.464 0 2.939 2.939 0 00-.236 1.359 2.977 2.977 0 00.236 1.372.847.847 0 001.471 0z" fill="#3f3d56"/><path data-name="Path 257" d="M106.462 31.813l-.213-.088 4.648-27.106h26.961v.342h-26.791z" fill="#2f2e41"/><path data-name="Path 258" d="M137.858 8.375a3.586 3.586 0 113.586-3.586 3.586 3.586 0 01-3.586 3.586zm0-6.83a3.244 3.244 0 103.244 3.244 3.244 3.244 0 00-3.244-3.244z" fill="#2f2e41"/><circle data-name="Ellipse 191" cx="1.366" cy="1.366" r="1.366" transform="translate(136.492 3.424)" fill="#623cea"/><path data-name="Path 259" d="M53.896 58.424l.246.088-5.377 27.106H17.579v-.337H48.57z" fill="#2f2e41"/><path data-name="Path 260" d="M17.578 81.861a3.586 3.586 0 11-3.586 3.586 3.586 3.586 0 013.586-3.586zm0 6.83a3.244 3.244 0 10-3.244-3.244 3.244 3.244 0 003.244 3.244z" fill="#2f2e41"/><circle data-name="Ellipse 192" cx="1.366" cy="1.366" r="1.366" transform="translate(16.213 84.081)" fill="#623cea"/>
</svg>