<svg xmlns="http://www.w3.org/2000/svg" width="102.047" height="65.198">
  <defs><linearGradient id="a" x1=".5" x2=".5" y2="1" gradientUnits="objectBoundingBox"><stop offset="0" stop-color="#087ca7"/><stop offset="1" stop-color="#087ca7" stop-opacity="0"/></linearGradient></defs><g transform="translate(-102.135 -123.407)"><path data-name="Path 117" d="M202.619 160.848s0 3.5-.952 3.745" fill="none" stroke="#444053" stroke-miterlimit="10"/><path data-name="Path 118" d="M194.838 165.375s3.781.323 5.526-1.628" fill="none" stroke="#444053" stroke-miterlimit="10"/><path data-name="Path 119" d="M201.645 156.71s-.911 3.548-3.439 4.509" fill="none" stroke="#444053" stroke-miterlimit="10"/><path data-name="Path 120" d="M192.563 161.638a4.953 4.953 0 004.98-1.44" fill="none" stroke="#444053" stroke-miterlimit="10"/><path data-name="Path 121" d="M198.669 153.667s-.248 3.013-1.891 4.422" fill="none" stroke="#444053" stroke-miterlimit="10"/><path data-name="Path 122" d="M192.671 157.047s2.221.015 2.741-.709" fill="none" stroke="#444053" stroke-miterlimit="10"/><path data-name="Path 123" d="M204.182 126.058v59.773a2.773 2.773 0 01-2.772 2.775h-96.5a2.772 2.772 0 01-2.76-2.52 2.48 2.48 0 01-.012-.255v-59.773a1.656 1.656 0 01.006-.178h102.03c.003.054.008.115.008.178z" fill="#c8e2ed"/><path data-name="Path 124" d="M201.411 123.407h-96.5a2.772 2.772 0 00-2.4 1.387 2.741 2.741 0 00-.364 1.208h102.027a2.772 2.772 0 00-2.763-2.595z" fill="#087ca7"/><circle data-name="Ellipse 39" cx=".693" cy=".693" r=".693" transform="translate(105.743 124.101)" fill="#ededf4"/><circle data-name="Ellipse 40" cx=".693" cy=".693" r=".693" transform="translate(107.821 124.101)" fill="#ededf4"/><circle data-name="Ellipse 41" cx=".693" cy=".693" r=".693" transform="translate(109.901 124.101)" fill="#ededf4"/><rect data-name="Rectangle 74" width="14.399" height="1.326" rx=".663" transform="translate(105.712 135.119)" fill="#087ca7"/><g data-name="Group 255" transform="translate(105.712 37.153)" fill="#087ca7"><rect data-name="Rectangle 81" width="14.399" height="1.326" rx=".663" transform="translate(0 123.131)" opacity=".5"/><rect data-name="Rectangle 80" width="14.399" height="1.326" rx=".663" transform="translate(0 119.805)" opacity=".5"/><rect data-name="Rectangle 78" width="14.399" height="1.326" rx=".663" transform="translate(0 116.479)" opacity=".5"/><rect data-name="Rectangle 79" width="14.399" height="1.326" rx=".663" transform="translate(0 113.153)" opacity=".5"/><rect data-name="Rectangle 77" width="14.399" height="1.326" rx=".663" transform="translate(0 109.827)" opacity=".5"/><rect data-name="Rectangle 76" width="14.399" height="1.326" rx=".663" transform="translate(0 106.501)" opacity=".5"/><rect data-name="Rectangle 75" width="14.399" height="1.326" rx=".663" transform="translate(0 103.175)" opacity=".5"/></g><path data-name="Rectangle 82" fill="#dce0ed" opacity=".5" d="M135.484 133.088h63.803v.213h-63.803z"/><path data-name="Rectangle 83" fill="#dce0ed" opacity=".5" d="M135.484 138.038h63.803v.213h-63.803z"/><path data-name="Rectangle 84" fill="#dce0ed" opacity=".5" d="M135.484 142.988h63.803v.213h-63.803z"/><path data-name="Rectangle 85" fill="#dce0ed" opacity=".5" d="M135.484 147.938h63.803v.213h-63.803z"/><path data-name="Rectangle 86" fill="#dce0ed" opacity=".5" d="M135.484 152.887h63.803v.213h-63.803z"/><path data-name="Path 125" d="M491.062 311.343H427.18v-9.734l5.86 2.887 6.063.822 5.32-1.6 6.418-4.978 3.229-1.865 2.36-.454 2.258.121 3.714 1.834 5.048 3.215 3.961.51 3.142-1.083 6.657-5.454 3.4-1.211 3.557.55 2.9 1.673z" transform="translate(-291.775 -158.245)" opacity=".5" fill="url(#a)"/><path data-name="Path 126" d="M146.54 147.078c-5.753 0-11.068-3.519-11.135-3.563l.158-.236c.082.055 8.265 5.469 15.217 2.756a20.98 20.98 0 006.086-4.014c1.822-1.553 3.545-3.02 5.891-3.656a8.813 8.813 0 017.869 1.768c1.91 1.57 5.716 4.086 9.735 3.343 2.05-.385 3.777-1.882 5.606-3.467 3.5-3.043 7.13-6.184 13.4-1.678l-.168.233c-6.089-4.377-9.629-1.31-13.051 1.657-1.857 1.609-3.614 3.131-5.739 3.53-4.135.776-8.02-1.8-9.969-3.4a8.528 8.528 0 00-7.613-1.712c-2.286.619-3.984 2.066-5.782 3.6a21.2 21.2 0 01-6.167 4.062 11.885 11.885 0 01-4.338.777z" fill="#087ca7"/><circle data-name="Ellipse 42" cx="1.581" cy="1.581" r="1.581" transform="translate(164.604 136.563)" fill="#087ca7"/><g data-name="Group 4" transform="translate(141.122 164.187)" fill="#fff"><rect data-name="Rectangle 87" width="9.378" height="1.99" rx=".995"/><rect data-name="Rectangle 88" width="9.378" height="1.99" rx=".995" transform="translate(21.535)"/><rect data-name="Rectangle 89" width="9.378" height="1.99" rx=".995" transform="translate(43.069)"/></g><path data-name="Path 127" d="M140.459 178.082a5.163 5.163 0 015.268-5.136h.037v-1.326h-.042a6.485 6.485 0 00-6.589 6.458 6.578 6.578 0 002.257 4.96l.936-.937a5.256 5.256 0 01-1.867-4.019z" fill="#087ca7"/><path data-name="Path 128" d="M145.9 171.62v1.322a5.268 5.268 0 11-3.437 9.286l-.936.936a6.587 6.587 0 104.373-11.544z" fill="#087ca7" opacity=".5"/><path data-name="Path 129" d="M189.096 172.88a5.162 5.162 0 015.136 5.267v.042h1.321v-.042a6.486 6.486 0 00-6.458-6.589 6.573 6.573 0 00-4.952 2.257l.936.937a5.255 5.255 0 014.017-1.872z" fill="#087ca7" opacity=".5"/><path data-name="Path 130" d="M195.554 178.321h-1.321a5.268 5.268 0 11-9.286-3.438l-.936-.936a6.588 6.588 0 1011.547 4.374z" fill="#087ca7"/><path data-name="Path 131" d="M169.95 172.012l-.262 1.315a5.161 5.161 0 013.169 4.887 5.268 5.268 0 11-7.379-4.828l-.592-1.182a6.589 6.589 0 109.293 6.007 6.484 6.484 0 00-4.229-6.199z" fill="#087ca7" opacity=".5"/><path data-name="Path 132" d="M167.755 172.868a4.58 4.58 0 011.834.381l.262-1.315a5.82 5.82 0 00-2.1-.389 6.547 6.547 0 00-2.7.582l.591 1.184a5.23 5.23 0 012.113-.443z" fill="#087ca7"/></g>
</svg>