<svg xmlns="http://www.w3.org/2000/svg" width="557.924" height="908.328" viewBox="0 0 557.924 908.328"><defs><style>.a{opacity:0.02;}.b{fill:#011865;}</style></defs><g class="a" transform="translate(0 0)"><g transform="translate(0 0)"><path class="b" d="M21.28,2.919C25.4,2.1,29.516,1.186,33.663,0A48.469,48.469,0,0,0,21.28,2.919Z" transform="translate(38.337 0)"/><path class="b" d="M212.975,0h-5.239c-58.3,58.572-108.7,63.453-161.76,68.426-14.008,1.369-28.3,2.737-42.863,5.063-.42,1.6-.84,3.193-1.233,4.79,15.072-2.463,29.724-3.923,44.264-5.337C100.718,67.878,152.49,62.815,212.975,0Z" transform="translate(3.387 0)"/><path class="b" d="M270.684,47.214A437.619,437.619,0,0,0,305.7,0h-4.118a435.683,435.683,0,0,1-32.638,43.519C202.635,121.433,147.22,126.77,88.584,132.29,60.2,135.027,31.349,137.809,0,148.347v4.562c31.405-10.355,60.345-13.138,88.752-16.057C147.809,131.286,203.587,125.9,270.684,47.214Z" transform="translate(0 0)"/><path class="b" d="M309.905,111.078C336.548,79.9,360.207,42.469,380.111,0h-3.558c-19.5,40.975-42.53,77.144-68.385,107.383-66.312,77.914-121.726,83.251-180.362,88.771C88,200.168,47.234,204.137,0,229.363v4.562c47.318-25.454,88.136-29.423,127.974-33.3C187.03,195.15,242.808,189.767,309.905,111.078Z" transform="translate(0 0)"/><path class="b" d="M349.126,174.942C393.25,123.166,422.695,63,445.751,0h-3.278C419.7,61.72,390.673,120.612,347.5,171.247c-66.424,77.914-121.838,83.251-180.474,88.771C116.628,265.081,64.659,270.1,0,318.271v5.018c64.743-48.628,116.74-53.691,167.2-58.709C226.251,259.014,282.03,253.631,349.126,174.942Z" transform="translate(0 0)"/><path class="b" d="M206.417,325.166c59.056-5.7,114.863-11.085,181.931-89.775C445.919,167.833,478.529,86,504.527,2.2L501.726.92c-25.8,83.023-58.188,164.222-115.059,230.777C320.3,309.748,264.884,315.085,206.248,320.6,150.218,325.988,92.31,331.6,17.145,396.42,11.374,401.575,5.6,406.867,0,412.3v5.292c6.079-5.748,12.215-11.587,18.462-16.97C93.067,336.3,150.694,330.732,206.417,325.166Z" transform="translate(0 3.277)"/><path class="b" d="M245.638,349.567c59.056-5.7,114.863-11.085,181.931-89.774C487.466,189.907,520.3,104.01,546.8,16.562c-.56-1.551-1.149-3.011-1.765-4.562-26.474,87.859-59.2,173.984-119.2,244.234C359.52,334.148,304.106,339.485,245.47,345c-56.031,5.383-113.938,10.994-189.1,75.816A491.745,491.745,0,0,0,0,478.937v5.7a491.188,491.188,0,0,1,57.683-59.621C132.288,360.7,189.916,355.132,245.638,349.567Z" transform="translate(0 42.741)"/><path class="b" d="M284.859,301.771c59.056-5.7,114.863-11.085,181.931-89.774,36.549-43.034,67.5-97.44,91.05-160.071V43.35c-23.72,64.721-55.291,120.894-92.787,165.088-66.312,77.914-121.726,83.251-180.362,88.771-56.031,5.383-113.938,10.994-189.1,75.816C60.93,403.127,28.8,440.384,0,483.874v6.3c29.113-44.419,61.7-82.4,96.9-112.948C171.51,312.9,229.137,307.336,284.859,301.771Z" transform="translate(0 154.4)"/><path class="b" d="M136.126,323.549c74.6-64.32,132.232-69.885,187.955-75.268,59.056-5.748,114.863-11.131,181.931-89.82A463.133,463.133,0,0,0,557.84,83.193V76.35a460.028,460.028,0,0,1-53.565,78.416C437.851,232.68,382.437,238.017,323.8,243.719c-56.031,5.383-113.938,10.994-189.1,75.816C83.508,364.322,37.842,424.127,0,495.936v7.025C38.075,429.8,84.251,368.945,136.126,323.549Z" transform="translate(0 271.937)"/><path class="b" d="M162.232,290.143c74.6-64.32,132.232-69.885,187.954-75.314,59.056-5.7,114.863-11.085,181.931-89.775q6.5-7.664,12.607-15.555V103.66q-6.836,9.123-14.232,17.7c-66.424,77.914-121.838,83.251-180.474,88.953-56.031,5.383-113.938,10.994-189.1,75.816C102.784,336.307,51.488,407.744,7.28,499.708c.644,1.14,1.289,2.235,1.961,3.33C53.253,411.347,104.353,340.094,162.232,290.143Z" transform="translate(13.115 369.207)"/><path class="b" d="M168.378,269.665c74.6-64.32,132.232-69.885,187.955-75.314,51.072-4.927,99.706-9.671,155.317-61.766V127.34c-55.666,52.825-104.329,57.523-155.485,62.5-56.031,5.383-113.938,10.994-189.1,75.816Q87.806,334.077,25.64,454.6h3.614Q90.439,337.179,168.378,269.665Z" transform="translate(46.191 453.548)"/><path class="b" d="M346.966,184.494c38.745-3.741,76.061-7.344,116.1-31.567V148c-40.09,24.588-77.462,28.191-116.264,31.932-56.03,5.383-113.938,10.994-189.1,75.816-38.5,33.423-73.885,75.6-105.085,125.264H56.5c30.52-47.961,64.992-88.769,102.424-121.25C233.617,195.624,291.244,190.059,346.966,184.494Z" transform="translate(94.778 527.133)"/><path class="b" d="M142.168,255.4A496.083,496.083,0,0,0,83,316.8h4.707a490.688,490.688,0,0,1,55.863-57.386c74.6-64.32,132.232-69.885,187.954-75.314,25.858-2.463,51.072-4.927,76.874-13.457V166.08c-25.858,8.667-51.128,11.131-77.042,13.685C275.241,184.965,217.473,190.576,142.168,255.4Z" transform="translate(149.527 591.529)"/><path class="b" d="M119.16,259.064h6.107c70.907-58.207,126.461-63.59,180.25-68.836,10.338-.958,20.563-2.007,30.817-3.376.448-1.551.868-3.148,1.261-4.562-10.674,1.505-21.376,2.555-32.19,3.6C250.047,191.049,192.9,196.614,119.16,259.064Z" transform="translate(214.67 649.264)"/><path class="b" d="M21.28,2.919C25.4,2.1,29.516,1.186,33.663,0A48.469,48.469,0,0,0,21.28,2.919Z" transform="translate(38.337 0)"/><path class="b" d="M212.975,0h-5.239c-58.3,58.572-108.7,63.453-161.76,68.426-14.008,1.369-28.3,2.737-42.863,5.063-.42,1.6-.84,3.193-1.233,4.79,15.072-2.463,29.724-3.923,44.264-5.337C100.718,67.878,152.49,62.815,212.975,0Z" transform="translate(3.387 0)"/><path class="b" d="M270.684,47.214A437.619,437.619,0,0,0,305.7,0h-4.118a435.683,435.683,0,0,1-32.638,43.519C202.635,121.433,147.22,126.77,88.584,132.29,60.2,135.027,31.349,137.809,0,148.347v4.562c31.405-10.355,60.345-13.138,88.752-16.057C147.809,131.286,203.587,125.9,270.684,47.214Z" transform="translate(0 0)"/><path class="b" d="M309.905,111.078C336.548,79.9,360.207,42.469,380.111,0h-3.558c-19.5,40.975-42.53,77.144-68.385,107.383-66.312,77.914-121.726,83.251-180.362,88.771C88,200.168,47.234,204.137,0,229.363v4.562c47.318-25.454,88.136-29.423,127.974-33.3C187.03,195.15,242.808,189.767,309.905,111.078Z" transform="translate(0 0)"/><path class="b" d="M349.126,174.942C393.25,123.166,422.695,63,445.751,0h-3.278C419.7,61.72,390.673,120.612,347.5,171.247c-66.424,77.914-121.838,83.251-180.474,88.771C116.628,265.081,64.659,270.1,0,318.271v5.018c64.743-48.628,116.74-53.691,167.2-58.709C226.251,259.014,282.03,253.631,349.126,174.942Z" transform="translate(0 0)"/><path class="b" d="M206.417,325.166c59.056-5.7,114.863-11.085,181.931-89.775C445.919,167.833,478.529,86,504.527,2.2L501.726.92c-25.8,83.023-58.188,164.222-115.059,230.777C320.3,309.748,264.884,315.085,206.248,320.6,150.218,325.988,92.31,331.6,17.145,396.42,11.374,401.575,5.6,406.867,0,412.3v5.292c6.079-5.748,12.215-11.587,18.462-16.97C93.067,336.3,150.694,330.732,206.417,325.166Z" transform="translate(0 3.277)"/><path class="b" d="M245.638,349.567c59.056-5.7,114.863-11.085,181.931-89.774C487.466,189.907,520.3,104.01,546.8,16.562c-.56-1.551-1.149-3.011-1.765-4.562-26.474,87.859-59.2,173.984-119.2,244.234C359.52,334.148,304.106,339.485,245.47,345c-56.031,5.383-113.938,10.994-189.1,75.816A491.745,491.745,0,0,0,0,478.937v5.7a491.188,491.188,0,0,1,57.683-59.621C132.288,360.7,189.916,355.132,245.638,349.567Z" transform="translate(0 42.741)"/><path class="b" d="M284.859,301.771c59.056-5.7,114.863-11.085,181.931-89.774,36.549-43.034,67.5-97.44,91.05-160.071V43.35c-23.72,64.721-55.291,120.894-92.787,165.088-66.312,77.914-121.726,83.251-180.362,88.771-56.031,5.383-113.938,10.994-189.1,75.816C60.93,403.127,28.8,440.384,0,483.874v6.3c29.113-44.419,61.7-82.4,96.9-112.948C171.51,312.9,229.137,307.336,284.859,301.771Z" transform="translate(0 154.4)"/><path class="b" d="M136.126,323.549c74.6-64.32,132.232-69.885,187.955-75.268,59.056-5.748,114.863-11.131,181.931-89.82A463.133,463.133,0,0,0,557.84,83.193V76.35a460.028,460.028,0,0,1-53.565,78.416C437.851,232.68,382.437,238.017,323.8,243.719c-56.031,5.383-113.938,10.994-189.1,75.816C83.508,364.322,37.842,424.127,0,495.936v7.025C38.075,429.8,84.251,368.945,136.126,323.549Z" transform="translate(0 271.937)"/><path class="b" d="M162.232,290.143c74.6-64.32,132.232-69.885,187.954-75.314,59.056-5.7,114.863-11.085,181.931-89.775q6.5-7.664,12.607-15.555V103.66q-6.836,9.123-14.232,17.7c-66.424,77.914-121.838,83.251-180.474,88.953-56.031,5.383-113.938,10.994-189.1,75.816C102.784,336.307,51.488,407.744,7.28,499.708c.644,1.14,1.289,2.235,1.961,3.33C53.253,411.347,104.353,340.094,162.232,290.143Z" transform="translate(13.115 369.207)"/><path class="b" d="M168.378,269.665c74.6-64.32,132.232-69.885,187.955-75.314,51.072-4.927,99.706-9.671,155.317-61.766V127.34c-55.666,52.825-104.329,57.523-155.485,62.5-56.031,5.383-113.938,10.994-189.1,75.816Q87.806,334.077,25.64,454.6h3.614Q90.439,337.179,168.378,269.665Z" transform="translate(46.191 453.548)"/><path class="b" d="M346.966,184.494c38.745-3.741,76.061-7.344,116.1-31.567V148c-40.09,24.588-77.462,28.191-116.264,31.932-56.03,5.383-113.938,10.994-189.1,75.816-38.5,33.423-73.885,75.6-105.085,125.264H56.5c30.52-47.961,64.992-88.769,102.424-121.25C233.617,195.624,291.244,190.059,346.966,184.494Z" transform="translate(94.778 527.133)"/><path class="b" d="M142.168,255.4A496.083,496.083,0,0,0,83,316.8h4.707a490.688,490.688,0,0,1,55.863-57.386c74.6-64.32,132.232-69.885,187.954-75.314,25.858-2.463,51.072-4.927,76.874-13.457V166.08c-25.858,8.667-51.128,11.131-77.042,13.685C275.241,184.965,217.473,190.576,142.168,255.4Z" transform="translate(149.527 591.529)"/><path class="b" d="M119.16,259.064h6.107c70.907-58.207,126.461-63.59,180.25-68.836,10.338-.958,20.563-2.007,30.817-3.376.448-1.551.868-3.148,1.261-4.562-10.674,1.505-21.376,2.555-32.19,3.6C250.047,191.049,192.9,196.614,119.16,259.064Z" transform="translate(214.67 649.264)"/></g></g></svg>