<svg xmlns="http://www.w3.org/2000/svg" width="41.825" height="37.362" viewBox="0 0 41.825 37.362">
  <defs>
    <clipPath id="clip-path">
      <path id="Path_4116" data-name="Path 4116" d="M33.909,43.7A10.437,10.437,0,0,0,20.921,27.4a10.441,10.441,0,0,0-13,16.294A14.834,14.834,0,0,0,0,56.881v4.481a1.494,1.494,0,0,0,1.494,1.494H40.332a1.494,1.494,0,0,0,1.494-1.494V56.881A14.834,14.834,0,0,0,33.909,43.7ZM26.888,28.5a7.458,7.458,0,0,1,3.07,14.259c-.115.052-.23.1-.347.149a7.322,7.322,0,0,1-1.137.354c-.075.016-.149.025-.226.04a7.472,7.472,0,0,1-1.315.133c-.2,0-.4-.015-.6-.033a1.128,1.128,0,0,1-.224-.015,7.546,7.546,0,0,1-2.442-.72c-.028-.013-.061-.012-.09-.024-.149-.072-.3-.134-.432-.215.012-.015.019-.031.031-.046a10.479,10.479,0,0,0,1.6-2.914l.046-.126a10.537,10.537,0,0,0,.4-1.537c.013-.076.024-.149.036-.232a9.536,9.536,0,0,0,0-3.209c-.012-.078-.022-.149-.036-.232a10.539,10.539,0,0,0-.4-1.537l-.046-.126a10.481,10.481,0,0,0-1.6-2.914c-.012-.015-.019-.031-.031-.046A7.421,7.421,0,0,1,26.888,28.5ZM7.469,35.969a7.449,7.449,0,0,1,12.606-5.4c.087.084.172.167.255.254a7.68,7.68,0,0,1,.708.859c.066.093.126.191.187.287a7.347,7.347,0,0,1,.548,1.008c.037.085.066.172.1.257a7.3,7.3,0,0,1,.37,1.195c.011.045.013.09.022.136a7.031,7.031,0,0,1,0,2.811,13.384,13.384,0,0,1-.393,1.331c-.033.085-.061.172-.1.257a7.374,7.374,0,0,1-.548,1.007c-.061.1-.638.877-.895,1.146-.084.087-.169.17-.255.254a7.456,7.456,0,0,1-2.063,1.392,15.186,15.186,0,0,1-1.476.493c-.094.021-.191.033-.287.049a7.411,7.411,0,0,1-1.229.124h-.164a7.4,7.4,0,0,1-1.229-.124c-.1-.016-.193-.028-.287-.049a7.51,7.51,0,0,1-1.108-.344c-.124-.049-.246-.1-.367-.149A7.468,7.468,0,0,1,7.469,35.969Zm19.419,23.9H2.988V56.881a11.875,11.875,0,0,1,7.944-11.257,10.423,10.423,0,0,0,8.012,0,12,12,0,0,1,1.455.644c.311.16.6.342.9.526.194.121.391.239.578.372.288.2.56.427.828.656.172.149.342.3.5.448.246.233.478.479.7.732.16.182.315.367.463.559.2.251.382.508.556.772.149.224.282.457.414.69.149.257.287.514.412.781s.236.56.344.845c.094.248.194.494.272.747.1.347.178.705.251,1.064.045.212.1.42.136.635a12.355,12.355,0,0,1,.136,1.787v2.987Zm11.95,0H29.876V56.881c0-.468-.027-.931-.069-1.389-.012-.134-.033-.267-.048-.4-.04-.33-.087-.657-.149-.981q-.04-.208-.085-.417-.108-.5-.249-.989c-.031-.108-.06-.217-.093-.323a14.8,14.8,0,0,0-1.8-3.775l-.058-.085q-.385-.572-.823-1.107l-.01-.013a13.556,13.556,0,0,0-.963-1.071h.061a10.573,10.573,0,0,0,1.271.09h.082a10.563,10.563,0,0,0,1.177-.076c.122-.015.243-.037.366-.057q.477-.073.941-.19c.088-.022.178-.043.267-.069a10.171,10.171,0,0,0,1.195-.406,11.875,11.875,0,0,1,7.95,11.26v2.987Z" transform="translate(75.42 40.962)" fill="#011865"/>
    </clipPath>
    <radialGradient id="radial-gradient" cx="0.5" cy="0.5" r="0.5" gradientUnits="objectBoundingBox">
      <stop offset="0" stop-color="#9eb1f4"/>
      <stop offset="1" stop-color="#011865"/>
    </radialGradient>
  </defs>
  <g id="Mask_Group_26" data-name="Mask Group 26" transform="translate(-75.421 -66.456)" clip-path="url(#clip-path)">
    <g id="Rectangle_200" data-name="Rectangle 200" transform="translate(64.113 52.354)" stroke="#707070" stroke-width="1" fill="url(#radial-gradient)">
      <rect width="62" height="64" stroke="none"/>
      <rect x="0.5" y="0.5" width="61" height="63" fill="none"/>
    </g>
  </g>
</svg>
