<svg xmlns="http://www.w3.org/2000/svg" width="1929.994" height="1098.323" viewBox="0 0 1929.994 1098.323"><defs><style>.a{opacity:0.02;}.b{fill:#011865;}</style></defs><g class="a" transform="translate(0 0)"><g transform="translate(0 0)"><path class="b" d="M21.28,3.53C35.526,2.537,49.772,1.434,64.115,0,49.689.495,35.36,1.675,21.28,3.53Z" transform="translate(184.948 0)"/><path class="b" d="M732.109,0H713.986C512.313,70.824,337.969,76.726,154.419,82.738c-48.456,1.655-97.881,3.31-148.275,6.123C4.69,90.791,3.237,92.722,1.88,94.653,54.018,91.674,104.7,89.909,155,88.2,343.784,82.076,522.877,75.954,732.109,0Z" transform="translate(16.339 0)"/><path class="b" d="M936.36,57.089A1236.565,1236.565,0,0,0,1057.5,0h-14.246q-53.444,28.334-112.9,52.622C700.961,146.833,509.27,153.286,306.434,159.961,208.263,163.27,108.444,166.635,0,179.377v5.516c108.638-12.521,208.748-15.886,307.016-19.416C511.305,158.747,704.256,152.238,936.36,57.089Z" transform="translate(0 0)"/><path class="b" d="M1072.036,134.312C1164.2,96.615,1246.043,51.352,1314.9,0h-12.308c-67.443,49.546-147.122,93.28-236.561,129.844-229.39,94.211-421.081,100.665-623.917,107.339C304.4,242.037,163.393,246.836,0,277.339v5.516c163.684-30.779,304.884-35.577,442.692-40.266C646.982,235.97,839.933,229.461,1072.036,134.312Z" transform="translate(0 0)"/><path class="b" d="M1207.712,211.534C1360.348,148.929,1462.2,76.174,1541.96,0h-11.339c-78.789,74.63-179.19,145.84-328.53,207.066-229.777,94.211-421.468,100.665-624.3,107.339C403.443,320.528,223.672,326.6,0,384.843v6.067c223.963-58.8,403.831-64.922,578.368-70.989C782.658,313.192,975.609,306.683,1207.712,211.534Z" transform="translate(0 0)"/><path class="b" d="M714.044,392.989c204.29-6.895,397.337-13.4,629.344-108.553,199.153-81.69,311.958-180.645,401.892-281.972L1735.589.92c-89.256,100.389-201.286,198.572-398.016,279.049C1107.99,374.345,916.3,380.8,713.463,387.473,519.64,393.982,319.324,400.767,59.31,479.147,39.346,485.38,19.382,491.779,0,498.343v6.4c21.03-6.95,42.253-14.01,63.865-20.519C321.94,406.448,521.287,399.719,714.044,392.989Z" transform="translate(0 4.155)"/><path class="b" d="M849.721,420.176c204.29-6.895,397.337-13.4,629.344-108.553,207.2-84.5,320.777-188.368,412.456-294.107-1.938-1.875-3.973-3.64-6.106-5.516-91.581,106.236-204.774,210.376-412.359,295.321-229.39,94.211-421.081,100.665-623.917,107.339C655.316,421.168,455,427.953,194.986,506.334A1970.766,1970.766,0,0,0,0,576.606V583.5a1962.6,1962.6,0,0,1,199.541-72.092C457.616,433.634,656.964,426.9,849.721,420.176Z" transform="translate(0 54.191)"/><path class="b" d="M985.4,355.825c204.29-6.895,397.337-13.4,629.344-108.553,126.43-52.036,233.482-117.821,314.963-193.552V43.35c-82.054,78.259-191.266,146.181-320.971,199.62-229.39,94.211-421.081,100.665-623.917,107.339-193.823,6.509-394.139,13.293-654.153,91.674C210.772,478.381,99.634,523.432,0,576.019v7.612C100.71,529.921,213.42,484,335.218,447.058,593.293,369.284,792.64,362.554,985.4,355.825Z" transform="translate(0 195.764)"/><path class="b" d="M470.893,375.256c258.076-77.774,457.423-84.5,650.18-91.012,204.29-6.95,397.338-13.459,629.344-108.608,65.2-26.678,125.292-57.183,179.286-91.012V76.35c-55.446,35.391-117.587,67.189-185.295,94.818-229.777,94.211-421.469,100.665-624.3,107.56-193.823,6.509-394.139,13.293-654.153,91.674C288.874,424.557,130.905,496.871,0,583.7V592.2c131.711-88.46,291.445-162.049,470.894-216.94Z" transform="translate(0 344.788)"/><path class="b" d="M543.3,329.149c258.076-77.774,457.423-84.5,650.18-91.067,204.29-6.895,397.338-13.4,629.344-108.553q22.484-9.267,43.61-18.809v-7.06q-23.647,11.032-49.231,21.4c-229.777,94.211-421.468,100.665-624.3,107.56C999.073,239.13,798.757,245.915,538.743,324.3Q237.106,415.307,7.28,582.549c2.229,1.379,4.458,2.7,6.784,4.027Q242.436,420.272,543.3,329.149Z" transform="translate(63.272 468.117)"/><path class="b" d="M519.4,299.436c258.075-77.774,457.423-84.5,650.18-91.067,176.67-5.957,344.908-11.694,537.278-74.685V127.34C1514.3,191.214,1345.963,196.9,1169,202.908,975.18,209.416,774.864,216.2,514.85,294.582Q240.687,377.32,25.64,523.05h12.5Q249.8,381.071,519.4,299.436Z" transform="translate(222.841 575.053)"/><path class="b" d="M1070.86,192.127c134.029-4.523,263.115-8.881,401.6-38.17V148c-138.681,29.731-267.961,34.088-402.183,38.611C876.455,193.12,676.139,199.9,416.125,278.285,282.939,318.7,160.539,369.7,52.61,429.751h13.47C171.656,371.758,290.9,322.414,420.389,283.139,678.756,205.586,878.1,198.856,1070.86,192.127Z" transform="translate(457.242 668.351)"/><path class="b" d="M287.677,274.081A1972.586,1972.586,0,0,0,83,348.325H99.281a1975.192,1975.192,0,0,1,193.242-69.39c258.075-77.774,457.423-84.5,650.179-91.067,89.45-2.979,176.67-5.957,265.926-16.272V166.08c-89.45,10.48-176.864,13.459-266.507,16.548C748.007,188.916,548.176,195.7,287.677,274.081Z" transform="translate(721.366 749.998)"/><path class="b" d="M119.16,275.122h21.127c245.283-70.383,437.459-76.891,623.529-83.235,35.76-1.158,71.133-2.427,106.6-4.082,1.551-1.875,3-3.806,4.361-5.516-36.923,1.82-73.943,3.089-111.351,4.358C571.931,192.881,374.231,199.61,119.16,275.122Z" transform="translate(1035.638 823.201)"/><path class="b" d="M21.28,3.53C35.526,2.537,49.772,1.434,64.115,0,49.689.495,35.36,1.675,21.28,3.53Z" transform="translate(184.948 0)"/><path class="b" d="M732.109,0H713.986C512.313,70.824,337.969,76.726,154.419,82.738c-48.456,1.655-97.881,3.31-148.275,6.123C4.69,90.791,3.237,92.722,1.88,94.653,54.018,91.674,104.7,89.909,155,88.2,343.784,82.076,522.877,75.954,732.109,0Z" transform="translate(16.339 0)"/><path class="b" d="M936.36,57.089A1236.565,1236.565,0,0,0,1057.5,0h-14.246q-53.444,28.334-112.9,52.622C700.961,146.833,509.27,153.286,306.434,159.961,208.263,163.27,108.444,166.635,0,179.377v5.516c108.638-12.521,208.748-15.886,307.016-19.416C511.305,158.747,704.256,152.238,936.36,57.089Z" transform="translate(0 0)"/><path class="b" d="M1072.036,134.312C1164.2,96.615,1246.043,51.352,1314.9,0h-12.308c-67.443,49.546-147.122,93.28-236.561,129.844-229.39,94.211-421.081,100.665-623.917,107.339C304.4,242.037,163.393,246.836,0,277.339v5.516c163.684-30.779,304.884-35.577,442.692-40.266C646.982,235.97,839.933,229.461,1072.036,134.312Z" transform="translate(0 0)"/><path class="b" d="M1207.712,211.534C1360.348,148.929,1462.2,76.174,1541.96,0h-11.339c-78.789,74.63-179.19,145.84-328.53,207.066-229.777,94.211-421.468,100.665-624.3,107.339C403.443,320.528,223.672,326.6,0,384.843v6.067c223.963-58.8,403.831-64.922,578.368-70.989C782.658,313.192,975.609,306.683,1207.712,211.534Z" transform="translate(0 0)"/><path class="b" d="M714.044,392.989c204.29-6.895,397.337-13.4,629.344-108.553,199.153-81.69,311.958-180.645,401.892-281.972L1735.589.92c-89.256,100.389-201.286,198.572-398.016,279.049C1107.99,374.345,916.3,380.8,713.463,387.473,519.64,393.982,319.324,400.767,59.31,479.147,39.346,485.38,19.382,491.779,0,498.343v6.4c21.03-6.95,42.253-14.01,63.865-20.519C321.94,406.448,521.287,399.719,714.044,392.989Z" transform="translate(0 4.155)"/><path class="b" d="M849.721,420.176c204.29-6.895,397.337-13.4,629.344-108.553,207.2-84.5,320.777-188.368,412.456-294.107-1.938-1.875-3.973-3.64-6.106-5.516-91.581,106.236-204.774,210.376-412.359,295.321-229.39,94.211-421.081,100.665-623.917,107.339C655.316,421.168,455,427.953,194.986,506.334A1970.766,1970.766,0,0,0,0,576.606V583.5a1962.6,1962.6,0,0,1,199.541-72.092C457.616,433.634,656.964,426.9,849.721,420.176Z" transform="translate(0 54.191)"/><path class="b" d="M985.4,355.825c204.29-6.895,397.337-13.4,629.344-108.553,126.43-52.036,233.482-117.821,314.963-193.552V43.35c-82.054,78.259-191.266,146.181-320.971,199.62-229.39,94.211-421.081,100.665-623.917,107.339-193.823,6.509-394.139,13.293-654.153,91.674C210.772,478.381,99.634,523.432,0,576.019v7.612C100.71,529.921,213.42,484,335.218,447.058,593.293,369.284,792.64,362.554,985.4,355.825Z" transform="translate(0 195.764)"/><path class="b" d="M470.893,375.256c258.076-77.774,457.423-84.5,650.18-91.012,204.29-6.95,397.338-13.459,629.344-108.608,65.2-26.678,125.292-57.183,179.286-91.012V76.35c-55.446,35.391-117.587,67.189-185.295,94.818-229.777,94.211-421.469,100.665-624.3,107.56-193.823,6.509-394.139,13.293-654.153,91.674C288.874,424.557,130.905,496.871,0,583.7V592.2c131.711-88.46,291.445-162.049,470.894-216.94Z" transform="translate(0 344.788)"/><path class="b" d="M543.3,329.149c258.076-77.774,457.423-84.5,650.18-91.067,204.29-6.895,397.338-13.4,629.344-108.553q22.484-9.267,43.61-18.809v-7.06q-23.647,11.032-49.231,21.4c-229.777,94.211-421.468,100.665-624.3,107.56C999.073,239.13,798.757,245.915,538.743,324.3Q237.106,415.307,7.28,582.549c2.229,1.379,4.458,2.7,6.784,4.027Q242.436,420.272,543.3,329.149Z" transform="translate(63.272 468.117)"/><path class="b" d="M519.4,299.436c258.075-77.774,457.423-84.5,650.18-91.067,176.67-5.957,344.908-11.694,537.278-74.685V127.34C1514.3,191.214,1345.963,196.9,1169,202.908,975.18,209.416,774.864,216.2,514.85,294.582Q240.687,377.32,25.64,523.05h12.5Q249.8,381.071,519.4,299.436Z" transform="translate(222.841 575.053)"/><path class="b" d="M1070.86,192.127c134.029-4.523,263.115-8.881,401.6-38.17V148c-138.681,29.731-267.961,34.088-402.183,38.611C876.455,193.12,676.139,199.9,416.125,278.285,282.939,318.7,160.539,369.7,52.61,429.751h13.47C171.656,371.758,290.9,322.414,420.389,283.139,678.756,205.586,878.1,198.856,1070.86,192.127Z" transform="translate(457.242 668.351)"/><path class="b" d="M287.677,274.081A1972.586,1972.586,0,0,0,83,348.325H99.281a1975.192,1975.192,0,0,1,193.242-69.39c258.075-77.774,457.423-84.5,650.179-91.067,89.45-2.979,176.67-5.957,265.926-16.272V166.08c-89.45,10.48-176.864,13.459-266.507,16.548C748.007,188.916,548.176,195.7,287.677,274.081Z" transform="translate(721.366 749.998)"/><path class="b" d="M119.16,275.122h21.127c245.283-70.383,437.459-76.891,623.529-83.235,35.76-1.158,71.133-2.427,106.6-4.082,1.551-1.875,3-3.806,4.361-5.516-36.923,1.82-73.943,3.089-111.351,4.358C571.931,192.881,374.231,199.61,119.16,275.122Z" transform="translate(1035.638 823.201)"/></g></g></svg>