<svg xmlns="http://www.w3.org/2000/svg" width="284.763" height="270.734" viewBox="-215 300 500 100">
  <g id="Group_283" data-name="Group 283" transform="translate(-1318.006 -4581.374)">
    <g id="Layer_2" data-name="Layer 2" transform="translate(1318.006 4581.374)">
      <g id="Layer_1" data-name="Layer 1" transform="translate(0 0)">
        <path id="Path_967" data-name="Path 967" d="M21.28.636C22.74.457,24.2.258,25.669,0A26.544,26.544,0,0,0,21.28.636Z" transform="translate(-0.148 0)" fill="#011865"/>
        <path id="Path_968" data-name="Path 968" d="M76.705,0H74.848C54.183,12.751,36.319,13.813,17.51,14.9c-4.965.3-10.03.6-15.193,1.1-.149.348-.3.7-.437,1.043,5.343-.536,10.536-.854,15.69-1.162C36.914,14.776,55.266,13.674,76.705,0Z" transform="translate(-0.013 0)" fill="#011865"/>
        <path id="Path_969" data-name="Path 969" d="M95.947,10.278A116.9,116.9,0,0,0,108.36,0H106.9A117.306,117.306,0,0,1,95.332,9.474C71.826,26.435,52.184,27.6,31.4,28.8c-10.059.6-20.288,1.2-31.4,3.5v.993c11.132-2.254,21.39-2.86,31.459-3.5C52.393,28.58,72.164,27.408,95.947,10.278Z" transform="translate(0 0)" fill="#011865"/>
        <path id="Path_970" data-name="Path 970" d="M109.85,24.18A117.725,117.725,0,0,0,134.735,0h-1.261a117.029,117.029,0,0,1-24.24,23.376C85.729,40.337,66.087,41.5,45.3,42.7c-14.111.874-28.56,1.738-45.3,7.229v.993c16.772-5.541,31.241-6.405,45.362-7.249C66.3,42.482,86.067,41.31,109.85,24.18Z" transform="translate(0 0)" fill="#011865"/>
        <path id="Path_971" data-name="Path 971" d="M123.752,38.083C139.393,26.812,149.83,13.714,158,0H156.84c-8.073,13.436-18.361,26.256-33.664,37.279C99.632,54.24,79.989,55.4,59.2,56.6,41.34,57.705,22.919,58.8,0,69.284v1.092C22.949,59.791,41.38,58.689,59.265,57.6,80.2,56.385,99.969,55.213,123.752,38.083Z" transform="translate(0 0)" fill="#011865"/>
        <path id="Path_972" data-name="Path 972" d="M73.167,71.505c20.933-1.241,40.715-2.413,64.488-19.543C158.062,37.255,169.621,19.44,178.836,1.2L177.843.92c-9.146,18.073-20.625,35.749-40.784,50.238C113.534,68.149,93.892,69.311,73.107,70.512c-19.861,1.172-40.387,2.393-67.03,16.5C4.032,88.139,1.986,89.29,0,90.472v1.152C2.155,90.373,4.33,89.1,6.544,87.93,32.989,73.928,53.416,72.717,73.167,71.505Z" transform="translate(0 -0.006)" fill="#011865"/>
        <path id="Path_973" data-name="Path 973" d="M87.07,85.485c20.933-1.241,40.715-2.413,64.488-19.543,21.231-15.213,32.87-33.912,42.264-52.949-.2-.338-.407-.655-.626-.993-9.384,19.126-20.983,37.874-42.254,53.167C127.437,82.128,107.794,83.29,87.01,84.492,67.149,85.664,46.623,86.885,19.98,101A158.829,158.829,0,0,0,0,113.647v1.241A158.38,158.38,0,0,1,20.447,101.91C46.891,87.908,67.318,86.7,87.07,85.485Z" transform="translate(0 -0.084)" fill="#011865"/>
        <path id="Path_974" data-name="Path 974" d="M100.972,99.606c20.933-1.241,40.715-2.413,64.488-19.543a120.952,120.952,0,0,0,32.274-34.846V43.35a120.764,120.764,0,0,1-32.889,35.938C141.339,96.249,121.7,97.411,100.913,98.613c-19.861,1.172-40.387,2.393-67.03,16.5A161.864,161.864,0,0,0,0,139.248v1.37A160.921,160.921,0,0,1,34.349,116.03C60.794,102.029,81.221,100.817,100.972,99.606Z" transform="translate(0 -0.302)" fill="#011865"/>
        <path id="Path_975" data-name="Path 975" d="M48.252,130.163c26.445-14,46.871-15.213,66.623-16.385,20.933-1.251,40.715-2.423,64.488-19.553A117.42,117.42,0,0,0,197.734,77.84V76.35a115.987,115.987,0,0,1-18.987,17.07c-23.545,16.961-43.187,18.123-63.972,19.364-19.861,1.172-40.387,2.393-67.03,16.5A167.188,167.188,0,0,0,0,167.69v1.529a166.671,166.671,0,0,1,48.252-39.056Z" transform="translate(0 -0.532)" fill="#011865"/>
        <path id="Path_976" data-name="Path 976" d="M62.2,144.255c26.445-14,46.871-15.213,66.623-16.4,20.933-1.241,40.715-2.413,64.488-19.543q2.3-1.668,4.469-3.386V103.66q-2.423,1.986-5.045,3.853c-23.545,16.961-43.187,18.123-63.971,19.364-19.861,1.172-40.387,2.393-67.03,16.5Q30.83,159.767,7.28,189.876c.228.248.457.487.7.725C23.576,170.64,41.689,155.129,62.2,144.255Z" transform="translate(-0.051 -0.722)" fill="#011865"/>
        <path id="Path_977" data-name="Path 977" d="M76.235,158.323c26.445-14,46.871-15.213,66.623-16.4,18.1-1.072,35.342-2.105,55.054-13.446V127.34c-19.732,11.5-36.981,12.522-55.114,13.6-19.861,1.172-40.387,2.393-67.03,16.5q-28.093,14.9-50.129,41.132h1.281A167.954,167.954,0,0,1,76.235,158.323Z" transform="translate(-0.179 -0.887)" fill="#011865"/>
        <path id="Path_978" data-name="Path 978" d="M156.948,155.944c13.734-.814,26.961-1.6,41.152-6.872V148c-14.21,5.352-27.458,6.137-41.211,6.951-19.861,1.172-40.387,2.393-67.03,16.5A162.957,162.957,0,0,0,52.61,198.724h1.38A161.975,161.975,0,0,1,90.3,172.329C116.77,158.367,137.2,157.156,156.948,155.944Z" transform="translate(-0.366 -1.03)" fill="#011865"/>
        <path id="Path_979" data-name="Path 979" d="M103.973,185.524A159.523,159.523,0,0,0,83,198.89h1.668a158.886,158.886,0,0,1,19.8-12.492c26.445-14,46.871-15.213,66.623-16.4,9.166-.536,18.1-1.072,27.249-2.929v-.993c-9.166,1.887-18.123,2.423-27.309,2.979C151.142,170.191,130.666,171.413,103.973,185.524Z" transform="translate(-0.578 -1.156)" fill="#011865"/>
        <path id="Path_980" data-name="Path 980" d="M119.16,199h2.165c25.134-12.671,44.826-13.843,63.892-14.985,3.664-.209,7.289-.437,10.923-.735.159-.338.308-.685.447-.993-3.783.328-7.577.556-11.41.784C165.555,184.2,145.3,185.408,119.16,199Z" transform="translate(-0.83 -1.269)" fill="#011865"/>
        <path id="Path_981" data-name="Path 981" d="M21.28.636C22.74.457,24.2.258,25.669,0A26.544,26.544,0,0,0,21.28.636Z" transform="translate(-0.148 0)" fill="#011865"/>
        <path id="Path_982" data-name="Path 982" d="M76.705,0H74.848C54.183,12.751,36.319,13.813,17.51,14.9c-4.965.3-10.03.6-15.193,1.1-.149.348-.3.7-.437,1.043,5.343-.536,10.536-.854,15.69-1.162C36.914,14.776,55.266,13.674,76.705,0Z" transform="translate(-0.013 0)" fill="#011865"/>
        <path id="Path_983" data-name="Path 983" d="M95.947,10.278A116.9,116.9,0,0,0,108.36,0H106.9A117.306,117.306,0,0,1,95.332,9.474C71.826,26.435,52.184,27.6,31.4,28.8c-10.059.6-20.288,1.2-31.4,3.5v.993c11.132-2.254,21.39-2.86,31.459-3.5C52.393,28.58,72.164,27.408,95.947,10.278Z" transform="translate(0 0)" fill="#011865"/>
        <path id="Path_984" data-name="Path 984" d="M109.85,24.18A117.725,117.725,0,0,0,134.735,0h-1.261a117.029,117.029,0,0,1-24.24,23.376C85.729,40.337,66.087,41.5,45.3,42.7c-14.111.874-28.56,1.738-45.3,7.229v.993c16.772-5.541,31.241-6.405,45.362-7.249C66.3,42.482,86.067,41.31,109.85,24.18Z" transform="translate(0 0)" fill="#011865"/>
        <path id="Path_985" data-name="Path 985" d="M123.752,38.083C139.393,26.812,149.83,13.714,158,0H156.84c-8.073,13.436-18.361,26.256-33.664,37.279C99.632,54.24,79.989,55.4,59.2,56.6,41.34,57.705,22.919,58.8,0,69.284v1.092C22.949,59.791,41.38,58.689,59.265,57.6,80.2,56.385,99.969,55.213,123.752,38.083Z" transform="translate(0 0)" fill="#011865"/>
        <path id="Path_986" data-name="Path 986" d="M73.167,71.505c20.933-1.241,40.715-2.413,64.488-19.543C158.062,37.255,169.621,19.44,178.836,1.2L177.843.92c-9.146,18.073-20.625,35.749-40.784,50.238C113.534,68.149,93.892,69.311,73.107,70.512c-19.861,1.172-40.387,2.393-67.03,16.5C4.032,88.139,1.986,89.29,0,90.472v1.152C2.155,90.373,4.33,89.1,6.544,87.93,32.989,73.928,53.416,72.717,73.167,71.505Z" transform="translate(0 -0.006)" fill="#011865"/>
        <path id="Path_987" data-name="Path 987" d="M87.07,85.485c20.933-1.241,40.715-2.413,64.488-19.543,21.231-15.213,32.87-33.912,42.264-52.949-.2-.338-.407-.655-.626-.993-9.384,19.126-20.983,37.874-42.254,53.167C127.437,82.128,107.794,83.29,87.01,84.492,67.149,85.664,46.623,86.885,19.98,101A158.829,158.829,0,0,0,0,113.647v1.241A158.38,158.38,0,0,1,20.447,101.91C46.891,87.908,67.318,86.7,87.07,85.485Z" transform="translate(0 -0.084)" fill="#011865"/>
        <path id="Path_988" data-name="Path 988" d="M100.972,99.606c20.933-1.241,40.715-2.413,64.488-19.543a120.952,120.952,0,0,0,32.274-34.846V43.35a120.764,120.764,0,0,1-32.889,35.938C141.339,96.249,121.7,97.411,100.913,98.613c-19.861,1.172-40.387,2.393-67.03,16.5A161.864,161.864,0,0,0,0,139.248v1.37A160.921,160.921,0,0,1,34.349,116.03C60.794,102.029,81.221,100.817,100.972,99.606Z" transform="translate(0 -0.302)" fill="#011865"/>
        <path id="Path_989" data-name="Path 989" d="M48.252,130.163c26.445-14,46.871-15.213,66.623-16.385,20.933-1.251,40.715-2.423,64.488-19.553A117.42,117.42,0,0,0,197.734,77.84V76.35a115.987,115.987,0,0,1-18.987,17.07c-23.545,16.961-43.187,18.123-63.972,19.364-19.861,1.172-40.387,2.393-67.03,16.5A167.188,167.188,0,0,0,0,167.69v1.529a166.671,166.671,0,0,1,48.252-39.056Z" transform="translate(0 -0.532)" fill="#011865"/>
        <path id="Path_990" data-name="Path 990" d="M62.2,144.255c26.445-14,46.871-15.213,66.623-16.4,20.933-1.241,40.715-2.413,64.488-19.543q2.3-1.668,4.469-3.386V103.66q-2.423,1.986-5.045,3.853c-23.545,16.961-43.187,18.123-63.971,19.364-19.861,1.172-40.387,2.393-67.03,16.5Q30.83,159.767,7.28,189.876c.228.248.457.487.7.725C23.576,170.64,41.689,155.129,62.2,144.255Z" transform="translate(-0.051 -0.722)" fill="#011865"/>
        <path id="Path_991" data-name="Path 991" d="M76.235,158.323c26.445-14,46.871-15.213,66.623-16.4,18.1-1.072,35.342-2.105,55.054-13.446V127.34c-19.732,11.5-36.981,12.522-55.114,13.6-19.861,1.172-40.387,2.393-67.03,16.5q-28.093,14.9-50.129,41.132h1.281A167.954,167.954,0,0,1,76.235,158.323Z" transform="translate(-0.179 -0.887)" fill="#011865"/>
        <path id="Path_992" data-name="Path 992" d="M156.948,155.944c13.734-.814,26.961-1.6,41.152-6.872V148c-14.21,5.352-27.458,6.137-41.211,6.951-19.861,1.172-40.387,2.393-67.03,16.5A162.957,162.957,0,0,0,52.61,198.724h1.38A161.975,161.975,0,0,1,90.3,172.329C116.77,158.367,137.2,157.156,156.948,155.944Z" transform="translate(-0.366 -1.03)" fill="#011865"/>
        <path id="Path_993" data-name="Path 993" d="M103.973,185.524A159.523,159.523,0,0,0,83,198.89h1.668a158.886,158.886,0,0,1,19.8-12.492c26.445-14,46.871-15.213,66.623-16.4,9.166-.536,18.1-1.072,27.249-2.929v-.993c-9.166,1.887-18.123,2.423-27.309,2.979C151.142,170.191,130.666,171.413,103.973,185.524Z" transform="translate(-0.578 -1.156)" fill="#011865"/>
        <path id="Path_994" data-name="Path 994" d="M119.16,199h2.165c25.134-12.671,44.826-13.843,63.892-14.985,3.664-.209,7.289-.437,10.923-.735.159-.338.308-.685.447-.993-3.783.328-7.577.556-11.41.784C165.555,184.2,145.3,185.408,119.16,199Z" transform="translate(-0.83 -1.269)" fill="#011865"/>
      </g>
    </g>
    <g id="Layer_2-2" data-name="Layer 2" transform="translate(1405.006 4654.374)">
      <g id="Layer_1-2" data-name="Layer 1" transform="translate(0 0)">
        <path id="Path_967-2" data-name="Path 967" d="M21.28.636C22.74.457,24.2.258,25.669,0A26.544,26.544,0,0,0,21.28.636Z" transform="translate(-0.148 0)" fill="#011865"/>
        <path id="Path_968-2" data-name="Path 968" d="M76.705,0H74.848C54.183,12.751,36.319,13.813,17.51,14.9c-4.965.3-10.03.6-15.193,1.1-.149.348-.3.7-.437,1.043,5.343-.536,10.536-.854,15.69-1.162C36.914,14.776,55.266,13.674,76.705,0Z" transform="translate(-0.013 0)" fill="#011865"/>
        <path id="Path_969-2" data-name="Path 969" d="M95.947,10.278A116.9,116.9,0,0,0,108.36,0H106.9A117.306,117.306,0,0,1,95.332,9.474C71.826,26.435,52.184,27.6,31.4,28.8c-10.059.6-20.288,1.2-31.4,3.5v.993c11.132-2.254,21.39-2.86,31.459-3.5C52.393,28.58,72.164,27.408,95.947,10.278Z" transform="translate(0 0)" fill="#011865"/>
        <path id="Path_970-2" data-name="Path 970" d="M109.85,24.18A117.725,117.725,0,0,0,134.735,0h-1.261a117.029,117.029,0,0,1-24.24,23.376C85.729,40.337,66.087,41.5,45.3,42.7c-14.111.874-28.56,1.738-45.3,7.229v.993c16.772-5.541,31.241-6.405,45.362-7.249C66.3,42.482,86.067,41.31,109.85,24.18Z" transform="translate(0 0)" fill="#011865"/>
        <path id="Path_971-2" data-name="Path 971" d="M123.752,38.083C139.393,26.812,149.83,13.714,158,0H156.84c-8.073,13.436-18.361,26.256-33.664,37.279C99.632,54.24,79.989,55.4,59.2,56.6,41.34,57.705,22.919,58.8,0,69.284v1.092C22.949,59.791,41.38,58.689,59.265,57.6,80.2,56.385,99.969,55.213,123.752,38.083Z" transform="translate(0 0)" fill="#011865"/>
        <path id="Path_972-2" data-name="Path 972" d="M73.167,71.505c20.933-1.241,40.715-2.413,64.488-19.543C158.062,37.255,169.621,19.44,178.836,1.2L177.843.92c-9.146,18.073-20.625,35.749-40.784,50.238C113.534,68.149,93.892,69.311,73.107,70.512c-19.861,1.172-40.387,2.393-67.03,16.5C4.032,88.139,1.986,89.29,0,90.472v1.152C2.155,90.373,4.33,89.1,6.544,87.93,32.989,73.928,53.416,72.717,73.167,71.505Z" transform="translate(0 -0.006)" fill="#011865"/>
        <path id="Path_973-2" data-name="Path 973" d="M87.07,85.485c20.933-1.241,40.715-2.413,64.488-19.543,21.231-15.213,32.87-33.912,42.264-52.949-.2-.338-.407-.655-.626-.993-9.384,19.126-20.983,37.874-42.254,53.167C127.437,82.128,107.794,83.29,87.01,84.492,67.149,85.664,46.623,86.885,19.98,101A158.829,158.829,0,0,0,0,113.647v1.241A158.38,158.38,0,0,1,20.447,101.91C46.891,87.908,67.318,86.7,87.07,85.485Z" transform="translate(0 -0.084)" fill="#011865"/>
        <path id="Path_974-2" data-name="Path 974" d="M100.972,99.606c20.933-1.241,40.715-2.413,64.488-19.543a120.952,120.952,0,0,0,32.274-34.846V43.35a120.764,120.764,0,0,1-32.889,35.938C141.339,96.249,121.7,97.411,100.913,98.613c-19.861,1.172-40.387,2.393-67.03,16.5A161.864,161.864,0,0,0,0,139.248v1.37A160.921,160.921,0,0,1,34.349,116.03C60.794,102.029,81.221,100.817,100.972,99.606Z" transform="translate(0 -0.302)" fill="#011865"/>
        <path id="Path_975-2" data-name="Path 975" d="M48.252,130.163c26.445-14,46.871-15.213,66.623-16.385,20.933-1.251,40.715-2.423,64.488-19.553A117.42,117.42,0,0,0,197.734,77.84V76.35a115.987,115.987,0,0,1-18.987,17.07c-23.545,16.961-43.187,18.123-63.972,19.364-19.861,1.172-40.387,2.393-67.03,16.5A167.188,167.188,0,0,0,0,167.69v1.529a166.671,166.671,0,0,1,48.252-39.056Z" transform="translate(0 -0.532)" fill="#011865"/>
        <path id="Path_976-2" data-name="Path 976" d="M62.2,144.255c26.445-14,46.871-15.213,66.623-16.4,20.933-1.241,40.715-2.413,64.488-19.543q2.3-1.668,4.469-3.386V103.66q-2.423,1.986-5.045,3.853c-23.545,16.961-43.187,18.123-63.971,19.364-19.861,1.172-40.387,2.393-67.03,16.5Q30.83,159.767,7.28,189.876c.228.248.457.487.7.725C23.576,170.64,41.689,155.129,62.2,144.255Z" transform="translate(-0.051 -0.722)" fill="#011865"/>
        <path id="Path_977-2" data-name="Path 977" d="M76.235,158.323c26.445-14,46.871-15.213,66.623-16.4,18.1-1.072,35.342-2.105,55.054-13.446V127.34c-19.732,11.5-36.981,12.522-55.114,13.6-19.861,1.172-40.387,2.393-67.03,16.5q-28.093,14.9-50.129,41.132h1.281A167.954,167.954,0,0,1,76.235,158.323Z" transform="translate(-0.179 -0.887)" fill="#011865"/>
        <path id="Path_978-2" data-name="Path 978" d="M156.948,155.944c13.734-.814,26.961-1.6,41.152-6.872V148c-14.21,5.352-27.458,6.137-41.211,6.951-19.861,1.172-40.387,2.393-67.03,16.5A162.957,162.957,0,0,0,52.61,198.724h1.38A161.975,161.975,0,0,1,90.3,172.329C116.77,158.367,137.2,157.156,156.948,155.944Z" transform="translate(-0.366 -1.03)" fill="#011865"/>
        <path id="Path_979-2" data-name="Path 979" d="M103.973,185.524A159.523,159.523,0,0,0,83,198.89h1.668a158.886,158.886,0,0,1,19.8-12.492c26.445-14,46.871-15.213,66.623-16.4,9.166-.536,18.1-1.072,27.249-2.929v-.993c-9.166,1.887-18.123,2.423-27.309,2.979C151.142,170.191,130.666,171.413,103.973,185.524Z" transform="translate(-0.578 -1.156)" fill="#011865"/>
        <path id="Path_980-2" data-name="Path 980" d="M119.16,199h2.165c25.134-12.671,44.826-13.843,63.892-14.985,3.664-.209,7.289-.437,10.923-.735.159-.338.308-.685.447-.993-3.783.328-7.577.556-11.41.784C165.555,184.2,145.3,185.408,119.16,199Z" transform="translate(-0.83 -1.269)" fill="#011865"/>
        <path id="Path_981-2" data-name="Path 981" d="M21.28.636C22.74.457,24.2.258,25.669,0A26.544,26.544,0,0,0,21.28.636Z" transform="translate(-0.148 0)" fill="#011865"/>
        <path id="Path_982-2" data-name="Path 982" d="M76.705,0H74.848C54.183,12.751,36.319,13.813,17.51,14.9c-4.965.3-10.03.6-15.193,1.1-.149.348-.3.7-.437,1.043,5.343-.536,10.536-.854,15.69-1.162C36.914,14.776,55.266,13.674,76.705,0Z" transform="translate(-0.013 0)" fill="#011865"/>
        <path id="Path_983-2" data-name="Path 983" d="M95.947,10.278A116.9,116.9,0,0,0,108.36,0H106.9A117.306,117.306,0,0,1,95.332,9.474C71.826,26.435,52.184,27.6,31.4,28.8c-10.059.6-20.288,1.2-31.4,3.5v.993c11.132-2.254,21.39-2.86,31.459-3.5C52.393,28.58,72.164,27.408,95.947,10.278Z" transform="translate(0 0)" fill="#011865"/>
        <path id="Path_984-2" data-name="Path 984" d="M109.85,24.18A117.725,117.725,0,0,0,134.735,0h-1.261a117.029,117.029,0,0,1-24.24,23.376C85.729,40.337,66.087,41.5,45.3,42.7c-14.111.874-28.56,1.738-45.3,7.229v.993c16.772-5.541,31.241-6.405,45.362-7.249C66.3,42.482,86.067,41.31,109.85,24.18Z" transform="translate(0 0)" fill="#011865"/>
        <path id="Path_985-2" data-name="Path 985" d="M123.752,38.083C139.393,26.812,149.83,13.714,158,0H156.84c-8.073,13.436-18.361,26.256-33.664,37.279C99.632,54.24,79.989,55.4,59.2,56.6,41.34,57.705,22.919,58.8,0,69.284v1.092C22.949,59.791,41.38,58.689,59.265,57.6,80.2,56.385,99.969,55.213,123.752,38.083Z" transform="translate(0 0)" fill="#011865"/>
        <path id="Path_986-2" data-name="Path 986" d="M73.167,71.505c20.933-1.241,40.715-2.413,64.488-19.543C158.062,37.255,169.621,19.44,178.836,1.2L177.843.92c-9.146,18.073-20.625,35.749-40.784,50.238C113.534,68.149,93.892,69.311,73.107,70.512c-19.861,1.172-40.387,2.393-67.03,16.5C4.032,88.139,1.986,89.29,0,90.472v1.152C2.155,90.373,4.33,89.1,6.544,87.93,32.989,73.928,53.416,72.717,73.167,71.505Z" transform="translate(0 -0.006)" fill="#011865"/>
        <path id="Path_987-2" data-name="Path 987" d="M87.07,85.485c20.933-1.241,40.715-2.413,64.488-19.543,21.231-15.213,32.87-33.912,42.264-52.949-.2-.338-.407-.655-.626-.993-9.384,19.126-20.983,37.874-42.254,53.167C127.437,82.128,107.794,83.29,87.01,84.492,67.149,85.664,46.623,86.885,19.98,101A158.829,158.829,0,0,0,0,113.647v1.241A158.38,158.38,0,0,1,20.447,101.91C46.891,87.908,67.318,86.7,87.07,85.485Z" transform="translate(0 -0.084)" fill="#011865"/>
        <path id="Path_988-2" data-name="Path 988" d="M100.972,99.606c20.933-1.241,40.715-2.413,64.488-19.543a120.952,120.952,0,0,0,32.274-34.846V43.35a120.764,120.764,0,0,1-32.889,35.938C141.339,96.249,121.7,97.411,100.913,98.613c-19.861,1.172-40.387,2.393-67.03,16.5A161.864,161.864,0,0,0,0,139.248v1.37A160.921,160.921,0,0,1,34.349,116.03C60.794,102.029,81.221,100.817,100.972,99.606Z" transform="translate(0 -0.302)" fill="#011865"/>
        <path id="Path_989-2" data-name="Path 989" d="M48.252,130.163c26.445-14,46.871-15.213,66.623-16.385,20.933-1.251,40.715-2.423,64.488-19.553A117.42,117.42,0,0,0,197.734,77.84V76.35a115.987,115.987,0,0,1-18.987,17.07c-23.545,16.961-43.187,18.123-63.972,19.364-19.861,1.172-40.387,2.393-67.03,16.5A167.188,167.188,0,0,0,0,167.69v1.529a166.671,166.671,0,0,1,48.252-39.056Z" transform="translate(0 -0.532)" fill="#011865"/>
        <path id="Path_990-2" data-name="Path 990" d="M62.2,144.255c26.445-14,46.871-15.213,66.623-16.4,20.933-1.241,40.715-2.413,64.488-19.543q2.3-1.668,4.469-3.386V103.66q-2.423,1.986-5.045,3.853c-23.545,16.961-43.187,18.123-63.971,19.364-19.861,1.172-40.387,2.393-67.03,16.5Q30.83,159.767,7.28,189.876c.228.248.457.487.7.725C23.576,170.64,41.689,155.129,62.2,144.255Z" transform="translate(-0.051 -0.722)" fill="#011865"/>
        <path id="Path_991-2" data-name="Path 991" d="M76.235,158.323c26.445-14,46.871-15.213,66.623-16.4,18.1-1.072,35.342-2.105,55.054-13.446V127.34c-19.732,11.5-36.981,12.522-55.114,13.6-19.861,1.172-40.387,2.393-67.03,16.5q-28.093,14.9-50.129,41.132h1.281A167.954,167.954,0,0,1,76.235,158.323Z" transform="translate(-0.179 -0.887)" fill="#011865"/>
        <path id="Path_992-2" data-name="Path 992" d="M156.948,155.944c13.734-.814,26.961-1.6,41.152-6.872V148c-14.21,5.352-27.458,6.137-41.211,6.951-19.861,1.172-40.387,2.393-67.03,16.5A162.957,162.957,0,0,0,52.61,198.724h1.38A161.975,161.975,0,0,1,90.3,172.329C116.77,158.367,137.2,157.156,156.948,155.944Z" transform="translate(-0.366 -1.03)" fill="#011865"/>
        <path id="Path_993-2" data-name="Path 993" d="M103.973,185.524A159.523,159.523,0,0,0,83,198.89h1.668a158.886,158.886,0,0,1,19.8-12.492c26.445-14,46.871-15.213,66.623-16.4,9.166-.536,18.1-1.072,27.249-2.929v-.993c-9.166,1.887-18.123,2.423-27.309,2.979C151.142,170.191,130.666,171.413,103.973,185.524Z" transform="translate(-0.578 -1.156)" fill="#011865"/>
        <path id="Path_994-2" data-name="Path 994" d="M119.16,199h2.165c25.134-12.671,44.826-13.843,63.892-14.985,3.664-.209,7.289-.437,10.923-.735.159-.338.308-.685.447-.993-3.783.328-7.577.556-11.41.784C165.555,184.2,145.3,185.408,119.16,199Z" transform="translate(-0.83 -1.269)" fill="#011865"/>
      </g>
    </g>
  </g>
</svg>
